<svg xmlns="http://www.w3.org/2000/svg" version="1.1" xmlns:xlink="http://www.w3.org/1999/xlink" width="374.66599" height="75.547478"><svg xmlns:dc="http://purl.org/dc/elements/1.1/" xmlns:cc="http://creativecommons.org/ns#" xmlns:rdf="http://www.w3.org/1999/02/22-rdf-syntax-ns#" xmlns:svg="http://www.w3.org/2000/svg" xmlns="http://www.w3.org/2000/svg" xmlns:sodipodi="http://sodipodi.sourceforge.net/DTD/sodipodi-0.dtd" xmlns:inkscape="http://www.inkscape.org/namespaces/inkscape" id="SvgjsSvg1052" version="1.1" width="374.66599" height="75.547478" viewBox="0 0 374.66599 75.547477" sodipodi:docname="fahrschule-roadstars-2023.svg" inkscape:version="1.0.2-2 (e86c870879, 2021-01-15)">
  <metadata id="SvgjsMetadata1051">
    <rdf:rdf>
      <cc:work rdf:about="">
        <dc:format>image/svg+xml</dc:format>
        <dc:type rdf:resource="http://purl.org/dc/dcmitype/StillImage"></dc:type>
      </cc:work>
    </rdf:rdf>
  </metadata>
  <defs id="SvgjsDefs1050"></defs>
  <sodipodi:namedview pagecolor="#ffffff" bordercolor="#666666" borderopacity="1" objecttolerance="10" gridtolerance="10" guidetolerance="10" inkscape:pageopacity="0" inkscape:pageshadow="2" inkscape:window-width="1920" inkscape:window-height="1017" id="SvgjsSodipodi:namedview1049" showgrid="false" inkscape:zoom="2.6875" inkscape:cx="187.333" inkscape:cy="37.813383" inkscape:window-x="-8" inkscape:window-y="-8" inkscape:window-maximized="1" inkscape:current-layer="svg"></sodipodi:namedview>
  <g id="SvgjsG1048" transform="translate(-12.667,-2.4525246)">
    <path id="SvgjsPath1047" d="m 38.5,3.005 c 0,0.296 0.104,0.545 0.25,0.601 0.143,0.055 0.25,0.304 0.25,0.578 0,0.266 0.075,0.483 0.167,0.483 0.091,0 0.166,0.262 0.166,0.583 0,0.321 0.075,0.583 0.167,0.583 0.092,0 0.167,0.182 0.167,0.403 0,0.222 0.125,0.653 0.278,0.959 0.153,0.305 0.34,0.685 0.417,0.844 0.185,0.388 0.177,2.128 -0.01,2.128 -0.081,0 -0.185,0.206 -0.231,0.458 -0.089,0.493 -0.409,1.445 -0.643,1.914 -0.08,0.16 -0.145,0.474 -0.145,0.699 0,0.225 -0.075,0.455 -0.166,0.512 C 39.075,13.807 39,14.079 39,14.355 c 0,0.276 -0.113,0.615 -0.25,0.752 -0.138,0.138 -0.25,0.428 -0.25,0.645 0,0.217 -0.075,0.441 -0.167,0.498 -0.091,0.057 -0.166,0.324 -0.166,0.593 0,0.27 -0.075,0.49 -0.167,0.49 -0.092,0 -0.167,0.263 -0.167,0.584 0,0.32 -0.075,0.583 -0.166,0.583 -0.092,0 -0.167,0.292 -0.167,0.649 0,0.423 -0.087,0.682 -0.25,0.745 -0.157,0.06 -0.25,0.315 -0.25,0.684 0,0.324 -0.075,0.589 -0.167,0.589 -0.091,0 -0.166,0.225 -0.166,0.5 0,0.275 -0.075,0.5 -0.167,0.5 -0.092,0 -0.167,0.254 -0.167,0.565 0,0.349 -0.095,0.602 -0.25,0.662 -0.146,0.056 -0.25,0.305 -0.25,0.601 0,0.278 -0.066,0.505 -0.147,0.505 -0.082,0 -0.194,0.225 -0.25,0.5 -0.057,0.275 -0.149,0.725 -0.205,1 -0.056,0.275 -0.169,0.5 -0.25,0.5 -0.081,0 -0.148,0.23 -0.148,0.512 0,0.281 -0.112,0.624 -0.25,0.762 -0.137,0.137 -0.25,0.39 -0.25,0.561 0,0.172 -0.075,0.358 -0.166,0.415 C 34.075,28.807 34,29.074 34,29.343 c 0,0.27 -0.075,0.49 -0.167,0.49 -0.091,0 -0.166,0.263 -0.166,0.584 0,0.321 -0.075,0.583 -0.167,0.583 -0.092,0 -0.167,0.131 -0.168,0.292 0,0.16 -0.113,0.506 -0.25,0.769 -0.137,0.262 -0.249,0.656 -0.249,0.875 0,0.218 -0.075,0.397 -0.166,0.397 -0.092,0 -0.167,0.338 -0.167,0.75 0,0.413 -0.075,0.75 -0.167,0.75 -0.091,0 -0.166,0.231 -0.166,0.512 0,0.282 -0.113,0.625 -0.25,0.762 -0.138,0.138 -0.25,0.432 -0.25,0.655 0,0.223 -0.075,0.405 -0.167,0.405 -0.092,0 -0.167,0.225 -0.167,0.5 0,0.275 -0.075,0.5 -0.166,0.5 -0.092,0 -0.167,0.262 -0.167,0.583 0,0.321 -0.072,0.583 -0.159,0.583 -0.088,0 -0.208,0.263 -0.269,0.584 -0.06,0.32 -0.176,0.583 -0.257,0.583 -0.082,0 -0.148,0.262 -0.148,0.583 0,0.321 -0.075,0.584 -0.167,0.584 -0.092,0 -0.167,0.225 -0.167,0.5 0,0.275 -0.075,0.5 -0.166,0.5 -0.092,0 -0.167,0.254 -0.167,0.565 0,0.349 -0.096,0.602 -0.25,0.662 C 29.104,43.95 29,44.199 29,44.495 29,44.773 28.925,45 28.833,45 c -0.091,0 -0.166,0.183 -0.166,0.407 0,0.224 -0.075,0.453 -0.167,0.51 -0.092,0.056 -0.167,0.356 -0.167,0.666 0,0.31 -0.075,0.61 -0.166,0.667 -0.092,0.057 -0.167,0.282 -0.167,0.5 0,0.218 -0.079,0.446 -0.175,0.505 -0.119,0.074 -0.113,0.182 0.021,0.343 0.154,0.186 0.138,0.235 -0.076,0.235 -0.198,0 -0.27,0.157 -0.27,0.584 0,0.32 -0.075,0.583 -0.167,0.583 -0.091,0 -0.166,0.114 -0.166,0.254 0,0.218 -0.472,0.829 -1.292,1.674 -0.115,0.118 -0.208,0.299 -0.208,0.403 0,0.16 -2.695,2.907 -3.61,3.678 -0.169,0.143 -0.456,0.462 -0.638,0.709 -0.182,0.247 -0.399,0.449 -0.481,0.449 -0.17,0 -0.937,0.852 -0.938,1.041 0,0.069 -0.078,0.125 -0.174,0.125 -0.226,0 -0.993,0.767 -0.993,0.993 0,0.096 -0.142,0.174 -0.315,0.174 -0.33,0 -0.518,0.307 -0.518,0.847 0,0.176 -0.075,0.32 -0.167,0.32 -0.091,0 -0.166,0.22 -0.166,0.49 0,0.269 -0.075,0.536 -0.167,0.593 -0.092,0.057 -0.167,0.319 -0.167,0.583 0,0.265 -0.068,0.523 -0.152,0.575 -0.084,0.051 -0.203,0.393 -0.264,0.759 -0.062,0.365 -0.181,0.707 -0.265,0.759 -0.084,0.051 -0.152,0.352 -0.152,0.667 0,0.316 -0.075,0.574 -0.167,0.574 -0.091,0 -0.166,0.3 -0.166,0.666 C 16.167,66.7 16.092,67 16,67 c -0.092,0 -0.167,0.178 -0.167,0.396 0,0.218 -0.112,0.49 -0.25,0.604 -0.137,0.114 -0.25,0.381 -0.25,0.594 0,0.212 -0.075,0.433 -0.166,0.489 C 15.075,69.14 15,69.407 15,69.677 c 0,0.269 -0.075,0.49 -0.167,0.49 -0.091,0 -0.166,0.188 -0.166,0.419 0,0.418 -0.033,0.511 -0.555,1.553 -0.153,0.305 -0.279,0.732 -0.279,0.948 0,0.216 -0.075,0.44 -0.166,0.496 -0.092,0.057 -0.167,0.324 -0.167,0.594 0,0.269 -0.075,0.49 -0.167,0.49 -0.091,0 -0.166,0.23 -0.166,0.512 0,0.281 -0.113,0.624 -0.25,0.761 -0.161,0.161 -0.25,0.573 -0.25,1.155 V 78 H 192 371.333 v -0.417 c 0,-0.229 0.075,-0.416 0.167,-0.416 0.092,0 0.167,-0.296 0.167,-0.657 0,-0.361 0.075,-0.703 0.166,-0.76 0.092,-0.057 0.167,-0.316 0.167,-0.575 0,-0.266 0.109,-0.515 0.25,-0.569 0.146,-0.056 0.25,-0.305 0.25,-0.601 0,-0.278 0.075,-0.505 0.167,-0.505 0.091,0 0.166,-0.263 0.166,-0.583 0,-0.321 0.075,-0.584 0.167,-0.584 0.092,0 0.167,-0.254 0.167,-0.565 0,-0.349 0.095,-0.602 0.25,-0.662 0.146,-0.056 0.25,-0.305 0.25,-0.601 0,-0.278 0.075,-0.505 0.166,-0.505 0.092,0 0.167,-0.263 0.167,-0.583 0,-0.321 0.075,-0.584 0.167,-0.584 0.091,0 0.166,-0.183 0.166,-0.406 0,-0.224 0.075,-0.454 0.167,-0.51 0.092,-0.057 0.167,-0.292 0.167,-0.522 0,-0.23 0.112,-0.531 0.25,-0.669 0.137,-0.137 0.25,-0.39 0.25,-0.561 0,-0.172 0.075,-0.358 0.166,-0.415 0.092,-0.057 0.167,-0.324 0.167,-0.593 0,-0.27 0.075,-0.49 0.167,-0.49 0.091,0 0.166,-0.263 0.166,-0.584 0,-0.321 0.075,-0.583 0.167,-0.583 0.092,0 0.167,-0.131 0.168,-0.292 0,-0.16 0.113,-0.506 0.25,-0.769 0.137,-0.262 0.249,-0.614 0.249,-0.782 0,-0.167 0.075,-0.35 0.166,-0.407 0.092,-0.057 0.167,-0.319 0.167,-0.583 0,-0.265 0.075,-0.527 0.167,-0.584 0.091,-0.056 0.166,-0.291 0.166,-0.521 0,-0.231 0.113,-0.532 0.25,-0.669 0.138,-0.138 0.25,-0.428 0.25,-0.645 0,-0.217 0.075,-0.441 0.167,-0.498 0.092,-0.057 0.167,-0.319 0.167,-0.583 0,-0.265 0.075,-0.527 0.166,-0.584 0.092,-0.056 0.167,-0.323 0.167,-0.593 0,-0.269 0.075,-0.49 0.167,-0.49 0.091,0 0.166,-0.23 0.166,-0.512 0,-0.281 0.113,-0.624 0.25,-0.762 0.138,-0.137 0.25,-0.465 0.25,-0.728 0,-0.263 0.075,-0.525 0.167,-0.581 0.092,-0.057 0.167,-0.324 0.167,-0.594 0,-0.269 0.075,-0.49 0.166,-0.49 0.092,0 0.167,-0.254 0.167,-0.565 0,-0.349 0.096,-0.602 0.25,-0.662 0.146,-0.056 0.25,-0.305 0.25,-0.601 0,-0.278 0.075,-0.505 0.167,-0.505 0.091,0 0.166,-0.263 0.166,-0.583 0,-0.321 0.075,-0.584 0.167,-0.584 0.092,0 0.167,-0.183 0.167,-0.406 0,-0.224 0.075,-0.454 0.166,-0.51 0.092,-0.057 0.167,-0.254 0.167,-0.439 0,-0.184 0.113,-0.448 0.25,-0.585 0.138,-0.138 0.25,-0.432 0.25,-0.655 0,-0.223 0.075,-0.405 0.167,-0.405 0.091,0 0.166,-0.262 0.166,-0.583 0,-0.321 0.075,-0.583 0.167,-0.583 0.092,0 0.167,-0.263 0.167,-0.584 0,-0.321 0.069,-0.583 0.153,-0.583 0.084,0 0.203,-0.224 0.263,-0.498 0.06,-0.274 0.179,-0.541 0.263,-0.593 0.085,-0.053 0.154,-0.274 0.154,-0.492 0,-0.219 0.075,-0.444 0.167,-0.5 0.091,-0.057 0.166,-0.436 0.166,-0.844 0,-0.407 0.075,-0.74 0.167,-0.74 0.092,0 0.167,-0.254 0.167,-0.565 0,-0.349 0.095,-0.602 0.25,-0.662 0.18,-0.069 0.25,-0.352 0.25,-1.017 0,-0.507 0.075,-0.922 0.166,-0.922 0.092,0 0.167,-0.225 0.167,-0.5 0,-0.275 0.075,-0.5 0.167,-0.5 0.091,0 0.166,-0.179 0.166,-0.398 0,-0.219 0.112,-0.612 0.249,-0.875 0.137,-0.263 0.25,-0.609 0.25,-0.769 0.001,-0.16 0.076,-0.292 0.168,-0.292 0.092,0 0.167,-0.126 0.167,-0.28 0,-0.313 0.297,-1.317 0.52,-1.759 0.081,-0.159 0.149,-0.422 0.152,-0.583 0.003,-0.162 0.115,-0.44 0.25,-0.618 0.155,-0.205 0.244,-0.708 0.244,-1.375 v -1.051 h -15 c -9.889,0 -15,0.056 -15,0.166 0,0.092 -0.408,0.167 -0.906,0.167 -0.499,0 -0.949,0.067 -0.999,0.148 -0.233,0.378 -1.261,0.298 -1.261,-0.098 v -0.383 h -17.634 c -13.821,0 -17.678,-0.045 -17.84,-0.207 -0.165,-0.165 -0.239,-0.157 -0.364,0.041 -0.205,0.325 -0.204,0.621 0.004,0.749 0.092,0.057 0.167,0.329 0.167,0.604 0,0.276 0.078,0.646 0.173,0.824 0.104,0.194 0.109,0.322 0.013,0.322 -0.087,0 -0.183,-0.056 -0.214,-0.125 -0.08,-0.18 -1.433,-1.042 -1.635,-1.042 -0.094,0 -0.17,-0.073 -0.17,-0.163 0,-0.09 -0.188,-0.211 -0.417,-0.268 -0.229,-0.058 -0.417,-0.172 -0.417,-0.253 0,-0.082 -0.262,-0.149 -0.583,-0.149 -0.321,0 -0.583,-0.075 -0.583,-0.167 0,-0.11 -6.25,-0.166 -18.417,-0.166 h -18.417 v -0.584 c 0,-0.321 0.075,-0.583 0.167,-0.583 0.092,0 0.167,-0.257 0.167,-0.571 0,-0.315 0.112,-0.684 0.25,-0.822 0.137,-0.137 0.25,-0.48 0.25,-0.762 0,-0.281 0.075,-0.512 0.166,-0.512 0.092,0 0.167,-0.258 0.167,-0.573 0,-0.316 0.075,-0.62 0.167,-0.677 0.442,-0.273 0.17,-0.901 -0.441,-1.015 -0.971,-0.182 -7.551,0.023 -7.77,0.243 -0.132,0.132 -1.565,0.189 -4.739,0.189 -2.923,0 -4.55,0.06 -4.55,0.167 0,0.091 -0.3,0.166 -0.667,0.166 -0.705,0 -0.969,-0.63 -0.472,-1.128 0.249,-0.249 0.633,-1.346 0.636,-1.82 0.002,-0.201 0.078,-0.412 0.169,-0.468 0.092,-0.057 0.167,-0.436 0.167,-0.844 0,-0.407 0.075,-0.74 0.167,-0.74 0.091,0 0.166,-0.178 0.166,-0.396 0,-0.218 0.113,-0.49 0.25,-0.604 0.138,-0.114 0.25,-0.423 0.25,-0.687 0,-0.264 0.075,-0.479 0.167,-0.479 0.092,0 0.167,-0.221 0.167,-0.49 0,-0.27 0.075,-0.537 0.166,-0.594 0.092,-0.056 0.167,-0.286 0.167,-0.51 0,-0.223 0.094,-0.406 0.209,-0.406 0.115,0 0.318,-0.244 0.449,-0.542 0.132,-0.298 0.376,-0.687 0.541,-0.865 0.166,-0.177 0.301,-0.38 0.301,-0.449 0,-0.187 2.817,-2.978 3.006,-2.978 0.088,0 0.161,-0.112 0.161,-0.25 0,-0.137 0.104,-0.25 0.231,-0.25 0.127,0 0.739,-0.487 1.358,-1.083 0.62,-0.596 1.191,-1.083 1.269,-1.083 0.078,0 0.142,-0.079 0.142,-0.175 0,-0.185 0.748,-0.992 0.921,-0.992 0.169,0 0.579,-0.463 0.579,-0.655 0,-0.098 0.075,-0.178 0.166,-0.178 0.092,0 0.167,-0.15 0.167,-0.334 0,-0.379 -50.183,-0.545 -50.417,-0.166 -0.056,0.091 -0.319,0.166 -0.583,0.166 -0.264,0 -0.527,0.075 -0.583,0.167 -0.057,0.092 -0.244,0.167 -0.415,0.167 -0.171,0 -0.424,0.112 -0.562,0.25 -0.137,0.137 -0.405,0.25 -0.595,0.25 -0.19,0 -0.345,0.075 -0.345,0.166 0,0.092 -0.146,0.167 -0.323,0.167 -0.178,0 -0.37,0.075 -0.427,0.167 -0.057,0.091 -0.249,0.166 -0.427,0.166 -0.177,0 -0.323,0.074 -0.323,0.164 0,0.09 -0.187,0.21 -0.417,0.268 -0.229,0.057 -0.416,0.171 -0.416,0.253 0,0.082 -0.15,0.149 -0.334,0.149 -0.183,0 -0.333,0.058 -0.333,0.13 0,0.072 -0.244,0.273 -0.542,0.447 -0.298,0.174 -0.663,0.452 -0.811,0.619 -0.148,0.167 -0.32,0.304 -0.382,0.304 -0.141,0 -0.932,0.781 -0.932,0.92 0,0.056 -0.262,0.35 -0.583,0.652 -0.321,0.303 -0.583,0.617 -0.584,0.697 0,0.081 -0.187,0.365 -0.416,0.632 -0.229,0.266 -0.417,0.585 -0.417,0.708 0,0.123 -0.075,0.224 -0.166,0.224 -0.092,0 -0.167,0.15 -0.167,0.333 0,0.184 -0.075,0.334 -0.167,0.334 -0.091,0 -0.166,0.187 -0.166,0.416 0,0.23 -0.075,0.417 -0.167,0.417 -0.092,0 -0.167,0.227 -0.167,0.505 0,0.296 -0.104,0.545 -0.25,0.601 -0.137,0.053 -0.25,0.276 -0.25,0.495 0,0.22 -0.075,0.399 -0.166,0.399 -0.092,0 -0.167,0.225 -0.167,0.5 0,0.275 -0.075,0.5 -0.167,0.5 -0.091,0 -0.166,0.254 -0.166,0.566 0,0.348 -0.096,0.602 -0.25,0.661 -0.138,0.053 -0.25,0.248 -0.25,0.434 0,0.187 -0.075,0.339 -0.167,0.339 -0.092,0 -0.167,0.187 -0.167,0.415 v 0.416 l -11.125,0.043 -11.125,0.043 -0.049,1.125 c -0.031,0.703 0.016,1.125 0.125,1.125 0.096,0 0.174,0.333 0.174,0.74 0,0.407 0.075,0.786 0.167,0.843 0.092,0.057 0.167,0.774 0.167,1.593 0,0.883 -0.068,1.49 -0.167,1.49 -0.092,0 -0.167,0.258 -0.167,0.574 0,0.315 -0.075,0.62 -0.166,0.676 C 186.075,26.14 186,26.407 186,26.677 v 0.49 h -7.083 c -4.611,0 -7.084,0.058 -7.084,0.166 0,0.092 -0.251,0.167 -0.557,0.167 -0.6,0 -1.609,0.426 -1.609,0.679 0,0.085 -0.188,0.154 -0.417,0.154 -0.229,0 -0.417,0.075 -0.417,0.167 0,0.092 -0.101,0.167 -0.224,0.167 -0.372,0 -1.176,0.461 -1.437,0.825 -0.135,0.188 -0.369,0.341 -0.519,0.341 -0.285,0 -1.153,0.771 -1.153,1.023 0,0.079 -0.113,0.144 -0.25,0.144 -0.138,0 -0.25,0.075 -0.25,0.167 0,0.329 -0.267,0.156 -0.579,-0.375 -0.382,-0.654 -1.678,-1.912 -2.11,-2.049 C 162.14,28.689 162,28.574 162,28.489 c 0,-0.086 -0.152,-0.156 -0.339,-0.156 -0.186,0 -0.381,-0.112 -0.434,-0.25 -0.053,-0.137 -0.238,-0.25 -0.411,-0.25 -0.174,0 -0.316,-0.075 -0.316,-0.166 0,-0.092 -0.263,-0.167 -0.583,-0.167 -0.321,0 -0.584,-0.075 -0.584,-0.167 0,-0.11 -5.305,-0.166 -15.583,-0.166 -10.953,0 -15.583,-0.053 -15.583,-0.179 0,-0.098 -0.169,-0.154 -0.375,-0.125 -0.729,0.104 -0.303,1.804 0.451,1.804 0.387,0 0.532,0.509 0.199,0.695 -0.151,0.085 -0.275,0.306 -0.275,0.492 0,0.827 -0.447,0.868 -1.203,0.11 -0.82,-0.822 -1.506,-1.297 -1.875,-1.297 -0.141,0 -0.256,-0.075 -0.256,-0.167 0,-0.092 -0.187,-0.167 -0.416,-0.167 -0.229,0 -0.417,-0.069 -0.417,-0.154 0,-0.266 -1.023,-0.679 -1.682,-0.679 -0.348,0 -0.678,-0.075 -0.735,-0.167 -0.142,-0.229 -24.358,-0.229 -24.5,0 -0.056,0.092 -0.323,0.167 -0.593,0.167 -0.269,0 -0.49,0.075 -0.49,0.167 0,0.091 -0.182,0.166 -0.405,0.166 -0.222,0 -0.517,0.113 -0.655,0.25 -0.137,0.138 -0.405,0.25 -0.595,0.25 -0.19,0 -0.345,0.066 -0.345,0.146 0,0.08 -0.226,0.191 -0.502,0.246 -0.276,0.056 -0.723,0.327 -0.994,0.605 -0.271,0.277 -0.598,0.503 -0.726,0.503 -0.253,0 -1.111,0.79 -1.111,1.023 0,0.079 -0.085,0.144 -0.189,0.144 -0.104,0 -0.329,0.162 -0.501,0.36 -0.172,0.198 -0.368,0.3 -0.436,0.227 -0.069,-0.073 -0.031,-0.166 0.084,-0.207 0.115,-0.041 0.208,-0.331 0.208,-0.644 0,-0.313 0.075,-0.569 0.167,-0.569 0.092,0 0.167,-0.291 0.167,-0.647 0,-0.371 0.106,-0.734 0.25,-0.853 0.137,-0.114 0.25,-0.424 0.25,-0.687 0,-0.264 0.075,-0.48 0.166,-0.48 0.092,0 0.167,-0.262 0.167,-0.583 0,-0.321 0.075,-0.584 0.167,-0.584 0.091,0 0.166,-0.187 0.166,-0.416 0,-0.229 0.075,-0.417 0.167,-0.417 0.092,0 0.167,-0.217 0.167,-0.482 0,-0.275 0.107,-0.524 0.25,-0.578 0.146,-0.056 0.25,-0.306 0.25,-0.601 0,-0.278 0.075,-0.506 0.166,-0.506 0.092,0 0.167,-0.22 0.167,-0.49 0,-0.269 0.075,-0.536 0.167,-0.593 0.091,-0.057 0.166,-0.286 0.166,-0.51 0,-0.224 0.069,-0.407 0.154,-0.407 0.084,0 0.202,-0.224 0.263,-0.498 0.06,-0.274 0.178,-0.541 0.263,-0.593 0.084,-0.052 0.154,-0.316 0.154,-0.585 0,-0.27 0.075,-0.49 0.166,-0.49 C 93.925,19.167 94,18.904 94,18.583 94,18.262 94.075,18 94.167,18 c 0.091,0 0.166,-0.21 0.166,-0.467 0,-0.256 0.076,-0.542 0.168,-0.634 0.92,-0.92 0.902,-9.399 -0.02,-9.399 -0.081,0 -0.148,-0.145 -0.148,-0.323 0,-0.341 -1.824,-2.344 -2.135,-2.344 -0.101,0 -0.37,-0.187 -0.6,-0.416 C 91.369,4.188 91.066,4 90.924,4 90.783,4 90.667,3.925 90.667,3.833 c 0,-0.091 -0.188,-0.166 -0.417,-0.166 -0.259,0 -0.417,-0.095 -0.417,-0.25 0,-0.156 -0.157,-0.25 -0.416,-0.25 C 89.188,3.167 89,3.092 89,3 89,2.908 88.779,2.833 88.51,2.833 88.24,2.833 87.973,2.758 87.917,2.667 87.849,2.557 79.415,2.5 63.157,2.5 H 38.5 v 0.505 m 48.368,3.704 c 4.191,1.305 5.415,3.696 4.117,8.041 -0.417,1.397 -1.523,4.645 -1.815,5.333 -0.078,0.184 -0.178,0.484 -0.222,0.667 -0.044,0.183 -0.544,1.646 -1.111,3.25 -0.568,1.604 -1.169,3.329 -1.337,3.833 -2.411,7.246 -4.374,9.334 -8.778,9.334 -0.927,0 -0.927,0 -0.82,0.458 0.059,0.252 0.177,0.946 0.263,1.542 0.288,2.009 1.053,7.09 1.518,10.083 0.085,0.55 0.237,1.637 0.337,2.417 0.1,0.779 0.366,2.016 0.592,2.75 0.225,0.733 0.423,1.483 0.44,1.666 0.045,0.485 -19.94,0.617 -20.125,0.133 -0.1,-0.259 -0.341,-3.004 -0.766,-8.716 -0.085,-1.146 -0.238,-3.171 -0.34,-4.5 -0.102,-1.329 -0.235,-3.167 -0.295,-4.083 L 58.417,37.25 55.883,37.204 C 53.54,37.162 53.337,37.182 53.181,37.474 52.818,38.151 49.023,49.978 48.84,51 c -0.106,0.596 -0.274,1.36 -0.373,1.697 -0.174,0.596 -0.129,1.342 0.165,2.724 0.079,0.369 0.112,0.763 0.075,0.875 -0.119,0.356 -20.851,0.29 -20.988,-0.067 -0.062,-0.162 0.005,-0.331 0.168,-0.422 1.059,-0.593 3.201,-4.545 4.367,-8.057 0.426,-1.283 0.833,-2.483 0.906,-2.667 0.073,-0.183 1.603,-4.795 3.4,-10.25 1.797,-5.454 4.086,-12.391 5.086,-15.416 C 44.545,10.645 44.409,11.148 44.397,9.25 44.392,8.333 44.298,7.368 44.19,7.105 43.771,6.087 42.42,6.146 64.902,6.204 l 20.515,0.053 1.451,0.452 M 251.402,6.336 c 6.286,10e-4 11.117,0.067 11.253,0.153 0.189,0.12 0.044,0.362 -0.702,1.168 -1.681,1.815 -2.38,3.055 -3.201,5.676 -0.243,0.779 -0.506,1.567 -0.582,1.75 -0.077,0.184 -0.182,0.465 -0.233,0.625 -0.128,0.401 -0.499,0.366 -1.232,-0.118 -2.082,-1.374 -2.892,-1.466 -13.622,-1.544 -12.537,-0.092 -11.667,-0.329 -12.979,3.537 -0.342,1.009 -0.687,1.984 -0.767,2.167 -0.079,0.183 -0.269,0.708 -0.422,1.167 -0.153,0.458 -0.346,0.963 -0.43,1.122 -0.083,0.16 -0.152,0.404 -0.152,0.544 0,0.14 -0.072,0.385 -0.159,0.544 -0.483,0.874 -1.341,3.829 -1.341,4.616 0,1.593 -0.576,1.492 9.143,1.605 9.069,0.106 9.233,0.122 11.728,1.096 2.52,0.985 3.34,2.8 2.791,6.183 -0.143,0.881 -2.864,9.437 -3.325,10.456 -0.083,0.184 -1.326,3.859 -2.762,8.167 -3.655,10.963 -4.489,12.801 -7.125,15.689 -1.172,1.284 -3.835,2.528 -6.533,3.051 -0.55,0.106 -1.362,0.265 -1.804,0.352 -1.612,0.317 -210.939,0.204 -211.061,-0.114 -0.057,-0.15 -0.017,-0.411 0.089,-0.581 0.106,-0.17 0.193,-0.424 0.193,-0.564 0,-0.14 0.065,-0.384 0.146,-0.544 0.08,-0.159 0.224,-0.552 0.319,-0.872 1.526,-5.134 2.589,-8.088 2.964,-8.232 0.146,-0.056 45.615,-0.102 101.043,-0.102 99.84,-10e-4 100.783,-0.004 101.314,-0.328 0.732,-0.447 1.302,-1.647 2.536,-5.338 0.566,-1.696 1.091,-3.234 1.166,-3.417 0.19,-0.462 1.845,-5.667 1.845,-5.8 0,-0.555 -0.917,-0.617 -9.283,-0.62 -8.613,-0.003 -10.005,-0.09 -11.967,-0.75 -2.258,-0.76 -3.417,-2.252 -3.417,-4.4 0,-1.627 2.506,-9.968 5.767,-19.199 0.312,-0.882 0.567,-1.689 0.567,-1.794 0,-0.105 0.067,-0.322 0.15,-0.481 0.082,-0.159 0.572,-1.587 1.089,-3.172 2.158,-6.625 4.418,-9.373 8.927,-10.86 2.711,-0.895 4.091,-0.997 12.319,-0.911 3.705,0.039 11.692,0.071 17.75,0.073 M 60.841,14.319 c -0.099,0.185 -0.487,1.295 -0.862,2.467 -1.358,4.241 -2.997,9.137 -3.153,9.42 -0.088,0.159 -0.159,0.404 -0.159,0.544 0,0.14 -0.068,0.385 -0.151,0.544 -1.092,2.102 -1.12,2.092 5.262,2 6.618,-0.094 6.416,-0.04 7.211,-1.961 0.208,-0.504 0.491,-1.179 0.629,-1.5 0.137,-0.321 0.308,-0.733 0.38,-0.916 0.071,-0.184 0.321,-0.821 0.556,-1.417 1.451,-3.689 2.652,-7.884 2.486,-8.685 C 72.869,13.99 61.269,13.519 60.841,14.319 m 143.222,7.935 c 0.227,0.226 0.202,0.406 -0.241,1.708 -0.771,2.267 -4.421,13.373 -6.395,19.455 -0.982,3.025 -1.854,5.63 -1.939,5.789 -0.085,0.159 -0.155,0.404 -0.155,0.544 0,0.14 -0.07,0.385 -0.156,0.544 -0.584,1.085 -1.034,2.969 -1.074,4.497 l -0.042,1.626 -5.86,0.043 -5.86,0.044 -0.083,-0.377 c -0.046,-0.207 -0.104,-0.591 -0.129,-0.852 l -0.046,-0.475 -0.619,0.494 c -1.441,1.149 -2.108,1.23 -9.635,1.169 -7.774,-0.063 -7.973,-0.094 -9.329,-1.458 -1.621,-1.631 -1.59,-2.616 0.263,-8.338 3.25,-10.041 3.613,-10.9 5.313,-12.591 2.963,-2.946 3.143,-2.993 11.507,-2.993 7.356,0 7.483,0.018 8.369,1.144 l 0.317,0.402 0.176,-0.439 c 0.098,-0.242 0.383,-1.115 0.634,-1.94 0.251,-0.825 0.524,-1.63 0.605,-1.789 0.082,-0.16 0.149,-0.413 0.149,-0.564 0,-0.15 0.192,-0.806 0.427,-1.457 0.313,-0.866 0.436,-1.563 0.461,-2.603 0.018,-0.781 0.093,-1.514 0.166,-1.629 0.217,-0.341 12.833,-0.298 13.176,0.046 m 69.704,3.314 c 0.088,0.229 -0.234,1.454 -1.032,3.927 -0.221,0.685 -0.402,1.304 -0.402,1.375 0,0.072 2.245,0.13 4.989,0.13 5.541,0 5.438,-0.023 4.999,1.103 -0.103,0.264 -0.441,1.183 -0.751,2.042 -0.805,2.234 -0.166,2.022 -6.087,2.022 h -5.143 l -0.107,0.458 c -0.117,0.503 -0.758,2.604 -1.233,4.042 -0.167,0.504 -0.58,1.816 -0.919,2.916 -0.338,1.1 -0.679,2.15 -0.758,2.334 -0.673,1.575 -1.256,4.418 -1.004,4.89 0.561,1.048 7.929,0.922 9.976,-0.171 1.359,-0.726 1.393,-0.44 0.228,1.951 -0.446,0.914 -0.979,2.038 -1.185,2.496 -0.698,1.55 0.107,1.417 -8.572,1.416 -9.583,-0.002 -11.146,-0.218 -12.693,-1.754 -1.423,-1.415 -1.367,-3.094 0.265,-7.912 0.295,-0.871 0.602,-1.713 0.683,-1.872 0.08,-0.16 0.146,-0.426 0.146,-0.592 0,-0.166 0.059,-0.374 0.132,-0.461 0.073,-0.087 0.345,-0.833 0.604,-1.658 0.26,-0.825 0.53,-1.65 0.601,-1.833 0.218,-0.566 1.329,-4.027 1.329,-4.142 0,-0.06 -0.79,-0.108 -1.755,-0.108 -2.204,0 -2.266,-0.167 -1.081,-2.917 0.079,-0.183 0.272,-0.689 0.428,-1.123 0.39,-1.081 0.447,-1.108 2.406,-1.162 l 1.729,-0.048 0.78,-2.25 c 0.43,-1.238 0.833,-2.372 0.897,-2.52 0.147,-0.343 1.18,-0.471 4.013,-0.498 1.192,-0.011 2.879,-0.074 3.75,-0.141 2.909,-0.222 4.667,-0.2 4.767,0.06 M 121.333,31.36 c 3.061,0.834 4.416,3.232 3.512,6.212 -0.537,1.765 -1.741,5.565 -1.853,5.845 -0.073,0.183 -0.56,1.683 -1.082,3.333 -2.056,6.495 -3.747,8.599 -7.639,9.501 -2.054,0.476 -23.3,0.291 -24.806,-0.217 -2.782,-0.937 -3.762,-2.865 -2.982,-5.867 0.195,-0.752 2.271,-7.291 2.513,-7.917 0.071,-0.183 0.341,-1.008 0.601,-1.833 0.259,-0.825 0.531,-1.572 0.604,-1.659 0.073,-0.087 0.132,-0.287 0.132,-0.445 0,-2.248 4.413,-6.367 7.578,-7.073 1.531,-0.342 22.116,-0.236 23.422,0.12 m 37.388,-0.031 c 2.675,0.984 3.824,4.325 2.61,7.588 -0.183,0.494 -1.009,2.976 -2.607,7.833 -0.783,2.383 -1.485,4.483 -1.559,4.667 -0.394,0.98 -0.722,2.645 -0.738,3.75 l -0.018,1.25 -5.829,0.046 c -6.977,0.056 -6.58,0.114 -6.58,-0.966 0,-0.979 0.009,-0.975 -0.698,-0.318 -1.379,1.279 -1.989,1.358 -9.885,1.285 -7.033,-0.064 -7.076,-0.07 -8.53,-1.032 -1.674,-1.108 -1.791,-3.256 -0.404,-7.432 1.758,-5.293 2.964,-6.867 6.267,-8.182 0.991,-0.394 1.068,-0.398 8.75,-0.483 8.712,-0.096 8.608,-0.081 9.306,-1.322 1.053,-1.873 1.078,-1.867 -8.223,-1.789 -8.184,0.068 -8.958,0.118 -9.87,0.63 -0.677,0.38 -1.046,0.399 -1.046,0.054 0,-0.282 0.208,-0.761 1.683,-3.872 l 0.97,-2.048 12.882,0.054 c 10.557,0.043 12.996,0.095 13.519,0.287 m 155.349,0.05 c 3.044,1.374 3.586,3.851 1.922,8.788 -0.078,0.229 -0.527,1.654 -1,3.166 -0.472,1.513 -0.97,3.088 -1.106,3.5 -0.508,1.532 -1.427,4.435 -1.571,4.959 -0.081,0.298 -0.228,0.823 -0.325,1.166 -0.098,0.344 -0.229,1.263 -0.292,2.042 l -0.115,1.417 -6.034,0.043 c -6.794,0.05 -6.534,0.1 -6.288,-1.212 0.125,-0.665 -0.06,-0.746 -0.527,-0.231 -1.195,1.321 -2.229,1.483 -9.484,1.483 -7.368,0 -8.577,-0.204 -9.799,-1.657 -0.863,-1.025 -0.912,-3.768 -0.103,-5.76 0.075,-0.183 0.405,-1.121 0.735,-2.083 1.282,-3.742 2.56,-5.52 4.763,-6.624 2.011,-1.008 2.343,-1.043 10.045,-1.043 7.41,0 7.99,-0.051 8.791,-0.784 0.622,-0.568 0.883,-1.508 0.557,-2.006 l -0.253,-0.385 -8.118,0.061 c -8.374,0.064 -8.801,0.091 -9.991,0.629 -0.814,0.367 -1.21,0.405 -1.21,0.115 0,-0.274 2.486,-5.302 2.807,-5.677 0.39,-0.456 25.576,-0.368 26.596,0.093 m 21.666,-0.278 c 0.35,0.134 0.326,0.428 -0.149,1.812 -0.492,1.431 -0.467,1.461 0.422,0.513 1.873,-1.998 2.824,-2.269 8.364,-2.38 5.049,-0.101 4.742,-0.255 3.99,2.003 -1.893,5.674 -1.893,5.673 -2.63,5.086 -1.084,-0.863 -1.172,-0.882 -4.223,-0.941 -4.259,-0.082 -5.505,0.322 -6.893,2.235 -0.593,0.817 -0.751,1.213 -1.624,4.071 -0.294,0.962 -0.778,2.5 -1.074,3.417 -1.644,5.084 -2.121,6.936 -2.147,8.333 l -0.022,1.167 -7.072,0.043 c -7.948,0.049 -7.64,0.104 -6.664,-1.186 0.602,-0.795 2.153,-4.379 2.153,-4.974 0,-0.217 0.834,-2.791 3.016,-9.3 0.107,-0.321 0.26,-0.714 0.339,-0.873 0.08,-0.159 0.145,-0.404 0.145,-0.544 0,-0.14 0.068,-0.384 0.152,-0.544 0.085,-0.159 0.278,-0.739 0.43,-1.289 0.29,-1.046 0.525,-1.772 0.754,-2.333 0.383,-0.938 0.497,-1.588 0.497,-2.831 0,-0.75 0.05,-1.414 0.111,-1.475 0.139,-0.139 11.765,-0.148 12.125,-0.01 m 46.497,0.166 c 0.086,0.224 -0.89,3.591 -1.41,4.866 -0.086,0.21 -0.156,0.525 -0.156,0.7 0,0.607 -0.491,0.66 -1.486,0.16 -1.565,-0.786 -2.042,-0.826 -9.759,-0.826 -7.718,0 -8.006,0.028 -8.201,0.804 -0.239,0.954 -0.347,0.937 6.714,1.042 6.411,0.096 7.062,0.154 8.275,0.729 2.47,1.172 2.652,2.922 0.868,8.335 -1.939,5.886 -3.59,7.752 -7.995,9.039 -1.214,0.355 -26.038,0.56 -26.25,0.216 -0.148,-0.238 1.741,-5.884 1.997,-5.97 0.175,-0.058 0.481,0.046 1.92,0.652 1.167,0.491 15.018,0.755 16.197,0.308 1.031,-0.39 1.589,-1.474 1.009,-1.956 -0.138,-0.114 -2.601,-0.197 -7.042,-0.237 -5.243,-0.047 -6.966,-0.114 -7.414,-0.288 -2.762,-1.074 -3.326,-3.2 -1.95,-7.341 0.138,-0.413 0.446,-1.388 0.686,-2.167 1.668,-5.42 4.335,-7.536 10.264,-8.144 2.857,-0.292 23.617,-0.224 23.733,0.078 m -277.367,5.264 c -0.837,0.406 -1.397,1.087 -1.754,2.136 -0.856,2.512 -1.314,3.785 -1.453,4.039 -0.088,0.159 -0.159,0.425 -0.159,0.592 0,0.166 -0.06,0.373 -0.133,0.46 -0.073,0.087 -0.267,0.571 -0.431,1.075 -0.164,0.504 -0.361,1.067 -0.439,1.25 -1.97,4.639 -1.454,5.516 3.168,5.38 3.671,-0.108 4.057,-0.344 4.971,-3.046 0.279,-0.825 1.043,-3.038 1.697,-4.917 0.654,-1.879 1.3,-3.737 1.436,-4.13 0.45,-1.297 0.26,-2.564 -0.436,-2.903 -0.937,-0.457 -5.485,-0.412 -6.467,0.064 m 75.218,-0.146 c -1.5,0.895 -1.508,0.909 -3.061,5.54 -0.645,1.92 -1.479,4.389 -1.855,5.486 -1.213,3.54 -0.976,3.95 2.349,4.059 4.076,0.134 4.91,-0.52 6.231,-4.887 0.25,-0.825 0.511,-1.65 0.58,-1.833 0.069,-0.183 0.205,-0.596 0.302,-0.917 0.895,-2.962 1.58,-5.149 1.711,-5.466 0.32,-0.77 0.194,-1.486 -0.325,-1.856 -0.574,-0.409 -5.29,-0.509 -5.932,-0.126 m -40.334,8.07 c -1.684,0.24 -3.7,5.308 -2.587,6.503 1.058,1.136 6.274,0.67 7.434,-0.664 0.525,-0.603 2.341,-5.489 2.154,-5.793 -0.101,-0.163 -5.91,-0.202 -7.001,-0.046 m 155.348,0 c -1.497,0.223 -3.009,3.039 -2.898,5.397 0.069,1.46 0.429,1.647 3.167,1.648 4.069,0 4.396,-0.266 6.058,-4.941 0.396,-1.114 0.675,-2.07 0.62,-2.125 -0.112,-0.112 -6.179,-0.093 -6.947,0.021 m 8.866,16.527 c 0.842,0.429 1.369,1.351 1.369,2.395 0,1.028 -0.163,1.123 -1.945,1.123 h -1.546 L 301.583,64 c -0.329,-0.637 -1.648,-0.739 -2.166,-0.167 -0.452,0.499 -0.018,0.873 1.547,1.333 3.506,1.031 4.157,2.414 2.513,5.338 -1.569,2.792 -7.82,3.656 -9.489,1.312 -0.436,-0.612 -0.614,-1.936 -0.331,-2.464 0.346,-0.647 3.462,-0.459 3.842,0.231 0.508,0.921 2.668,0.662 2.668,-0.32 0,-0.325 -0.73,-0.754 -1.545,-0.907 -0.388,-0.073 -0.968,-0.247 -1.289,-0.387 -0.321,-0.141 -0.789,-0.339 -1.042,-0.442 -1.207,-0.492 -1.516,-2.503 -0.608,-3.953 1.131,-1.804 1.925,-2.321 4.567,-2.974 0.804,-0.199 3.024,0.029 3.714,0.382 m 13.291,0.028 c 1.608,0.805 2.461,2.877 1.678,4.072 -0.52,0.794 -3.463,0.594 -3.68,-0.25 -0.41,-1.598 -2.576,-1.398 -3.673,0.339 -0.985,1.561 -1.378,3.841 -0.76,4.401 0.873,0.789 2.23,0.45 3.27,-0.819 L 314.707,68 h 1.646 c 1.895,0 1.902,0.008 1.216,1.361 -0.834,1.647 -2.02,2.623 -4.231,3.485 -0.979,0.381 -3.944,0.302 -4.755,-0.127 -4.304,-2.278 -1.312,-10.56 4.334,-11.998 1.313,-0.334 3.366,-0.197 4.338,0.289 m -62.994,1.458 c -0.527,1.581 -0.501,1.568 -3.087,1.53 -0.967,-0.015 -1.881,-0.02 -2.033,-0.012 -0.276,0.014 -0.641,0.795 -0.641,1.372 0,0.279 0.156,0.309 1.625,0.311 2.178,0.004 2.208,0.029 1.725,1.446 -0.547,1.605 -0.46,1.552 -2.533,1.552 -2.116,0 -1.988,-0.101 -2.746,2.166 -0.736,2.203 -0.698,2.167 -2.327,2.167 -2.33,0 -2.312,0.241 -0.407,-5.5 0.167,-0.504 0.579,-1.817 0.915,-2.917 0.336,-1.1 0.738,-2.375 0.894,-2.833 l 0.283,-0.833 4.161,-0.084 c 5.014,-0.1 4.779,-0.192 4.171,1.635 m 79.572,-1.294 c 0,0.63 -3.671,11.408 -3.959,11.623 -0.5,0.374 -3.437,0.205 -3.515,-0.202 -0.055,-0.288 0.451,-2.141 0.823,-3.012 0.078,-0.183 0.163,-0.558 0.188,-0.833 l 0.047,-0.5 -1.449,-0.048 c -1.765,-0.059 -1.583,-0.267 -2.301,2.631 -0.567,2.287 -0.43,2.161 -2.362,2.164 -2.397,0.005 -2.318,0.367 -0.889,-4.08 0.294,-0.917 0.817,-2.567 1.161,-3.667 0.344,-1.1 0.798,-2.525 1.009,-3.167 l 0.383,-1.166 1.849,-0.047 c 1.821,-0.047 1.849,-0.042 1.849,0.328 0,0.365 -0.534,2.307 -0.857,3.119 -0.241,0.606 -0.003,0.701 1.616,0.648 l 1.479,-0.048 0.389,-1.334 c 0.891,-3.058 0.676,-2.858 2.975,-2.78 1.41,0.048 1.564,0.085 1.564,0.371 m -70.724,-0.133 c 0.167,0.271 0.629,11.61 0.479,11.761 -0.063,0.063 -0.915,0.115 -1.893,0.115 h -1.778 l -0.052,-0.709 -0.051,-0.708 h -1.813 -1.814 l -0.538,0.75 -0.539,0.75 h -1.56 c -1.819,0 -1.997,-0.15 -1.339,-1.129 0.505,-0.754 1.681,-2.58 4.423,-6.871 1.143,-1.788 2.223,-3.456 2.4,-3.708 0.366,-0.521 3.778,-0.73 4.075,-0.251 m 9.891,0.04 c 0,0.136 -0.196,0.905 -0.436,1.708 -0.734,2.461 -0.836,2.211 0.896,2.211 1.778,0 1.693,0.074 2.283,-1.994 0.668,-2.34 0.466,-2.173 2.615,-2.173 h 1.846 l -0.102,0.545 c -0.057,0.299 -0.293,1.143 -0.525,1.875 -0.512,1.613 -1.511,4.804 -2.334,7.458 -0.711,2.289 -0.712,2.29 -2.607,2.286 -2.138,-0.003 -2.071,0.229 -0.989,-3.396 0.432,-1.447 0.443,-1.434 -1.234,-1.434 -1.69,0 -1.542,-0.183 -2.494,3.083 -0.504,1.728 -0.532,1.75 -2.243,1.75 -2.163,0 -2.253,-0.077 -1.776,-1.536 0.128,-0.393 0.62,-1.989 1.093,-3.547 0.472,-1.559 0.925,-3.021 1.006,-3.25 0.081,-0.229 0.349,-1.092 0.596,-1.917 0.248,-0.825 0.524,-1.594 0.615,-1.708 0.259,-0.328 3.79,-0.292 3.79,0.039 m 18.355,0.079 c 2.282,0.867 2.275,3.832 -0.013,5.451 -0.772,0.546 -0.79,0.608 -0.342,1.177 0.405,0.515 0.422,1.218 0.059,2.496 -0.151,0.531 -0.308,1.315 -0.349,1.742 -0.088,0.925 -0.183,0.968 -2.155,0.972 -2.104,0.003 -2.188,-0.159 -1.34,-2.563 l 0.347,-0.982 -0.457,-0.393 c -0.778,-0.669 -2.605,-0.479 -2.605,0.271 0,0.176 -0.067,0.492 -0.149,0.703 -0.082,0.21 -0.23,0.683 -0.328,1.049 -0.098,0.367 -0.223,0.835 -0.278,1.041 -0.201,0.752 -0.505,0.876 -2.132,0.873 -2.164,-0.003 -2.102,0.152 -1.134,-2.845 1.458,-4.51 2.938,-8.895 3.075,-9.11 0.244,-0.383 6.741,-0.285 7.801,0.118 m 49.478,-0.079 c 0,0.137 -0.566,1.953 -1.259,4.036 -0.783,2.355 -1.223,3.929 -1.165,4.163 0.233,0.927 1.908,0.958 2.842,0.052 0.586,-0.567 0.634,-0.697 2.177,-5.832 0.234,-0.779 0.517,-1.679 0.63,-2 l 0.205,-0.583 1.869,-0.047 c 2.286,-0.058 2.227,-0.545 0.551,4.579 -1.409,4.308 -1.78,5.044 -3.081,6.11 -2.535,2.077 -7.347,2.179 -8.866,0.187 -0.836,-1.096 -0.792,-1.319 1.979,-9.913 0.319,-0.99 0.342,-1 2.305,-1 1.494,0 1.813,0.044 1.813,0.248 m 14,0.244 c 0,0.271 -0.07,0.665 -0.155,0.875 -0.086,0.211 -0.304,0.871 -0.484,1.467 -0.18,0.595 -0.639,2.077 -1.02,3.292 -0.848,2.703 -0.955,2.541 1.674,2.541 2.579,0 2.522,-0.057 1.913,1.896 -0.538,1.726 -0.17,1.604 -4.826,1.604 -4.756,0 -4.592,0.067 -4.044,-1.667 0.218,-0.687 0.675,-2.15 1.017,-3.25 0.343,-1.1 0.756,-2.412 0.92,-2.916 0.163,-0.505 0.502,-1.592 0.754,-2.417 0.612,-2.007 0.493,-1.917 2.522,-1.917 h 1.729 v 0.492 m 16.915,-0.328 c 0.159,0.257 -0.603,2.387 -0.974,2.721 -0.294,0.264 -0.626,0.297 -2.747,0.267 -2.577,-0.035 -2.86,0.052 -2.86,0.88 0,0.274 0.179,0.302 1.927,0.302 2.624,0 2.681,0.038 2.15,1.449 -0.608,1.615 -0.49,1.551 -2.85,1.551 h -2.066 l -0.33,0.541 c -0.58,0.952 -0.566,0.959 2.137,0.959 3.158,0 3.136,-0.014 2.701,1.664 -0.454,1.752 -0.19,1.669 -5.29,1.669 -5.285,0 -4.875,0.278 -3.922,-2.667 0.431,-1.331 1.16,-3.695 2.205,-7.156 0.289,-0.957 0.599,-1.875 0.688,-2.042 0.185,-0.345 9.021,-0.478 9.231,-0.138 m -84.959,2.966 c -0.328,0.07 -0.789,1.028 -0.789,1.641 0,0.941 2.769,0.315 3.029,-0.685 0.196,-0.753 -0.929,-1.233 -2.24,-0.956 m -27.997,3.105 c -0.971,1.708 -0.98,1.599 0.125,1.599 h 0.916 l 0.003,-1.125 c 10e-4,-0.619 0.047,-1.294 0.102,-1.5 0.229,-0.854 -0.394,-0.296 -1.146,1.026" stroke="none" fill="#060606" fill-rule="evenodd"></path>
    <path id="SvgjsPath1046" d="m 299.917,61.021 c -0.275,0.088 -0.907,0.289 -1.404,0.445 -0.984,0.309 -2.29,1.478 -2.761,2.469 -0.657,1.385 0.003,3.538 1.092,3.56 0.143,0.003 0.571,0.155 0.95,0.338 0.379,0.184 0.888,0.334 1.131,0.334 1.112,0 1.831,0.91 1.291,1.634 -0.783,1.049 -2.586,0.973 -3.074,-0.13 -0.221,-0.498 -0.239,-0.504 -1.502,-0.504 -1.763,0 -1.807,0.026 -1.807,1.1 0,3.705 7.791,3.45 9.555,-0.313 1.258,-2.681 0.464,-3.829 -3.236,-4.681 -0.595,-0.137 -1.319,-0.736 -1.319,-1.093 0,-0.976 2.212,-1.33 2.903,-0.464 0.361,0.452 0.412,0.464 1.776,0.416 l 1.405,-0.049 0.049,-0.755 c 0.124,-1.894 -2.546,-3.113 -5.049,-2.307 m 12.833,0.127 c -3.542,1.029 -6.224,4.959 -5.852,8.574 0.453,4.41 8.136,4.124 10.384,-0.387 0.479,-0.963 0.434,-1.002 -1.18,-1.002 -1.31,0 -1.391,0.022 -1.608,0.428 -0.852,1.592 -3.45,2.066 -4.151,0.757 -0.291,-0.544 -0.012,-2.504 0.515,-3.611 1.282,-2.7 4.175,-3.436 4.706,-1.199 0.156,0.655 2.991,0.729 3.164,0.084 0.77,-2.872 -2.267,-4.723 -5.978,-3.644 m -66.634,0.144 c -0.038,0.068 -0.203,0.575 -0.365,1.125 -0.162,0.55 -0.388,1.3 -0.502,1.666 -0.115,0.367 -0.377,1.23 -0.584,1.917 -0.207,0.688 -0.617,2 -0.912,2.917 -1.316,4.095 -1.356,3.75 0.426,3.75 h 1.326 l 0.237,-0.542 c 0.392,-0.896 1.091,-2.868 1.091,-3.077 0,-0.501 0.733,-0.715 2.444,-0.715 1.882,0 1.805,0.043 2.26,-1.238 0.366,-1.027 0.437,-0.979 -1.414,-0.942 -1.655,0.034 -2.508,-0.334 -1.986,-0.857 0.108,-0.108 0.196,-0.373 0.196,-0.59 0,-0.995 0.122,-1.039 2.84,-1.039 h 2.494 v -0.389 c 0,-0.214 0.051,-0.441 0.114,-0.503 0.12,-0.12 0.546,-1.268 0.55,-1.483 0.001,-0.069 -1.831,-0.125 -4.071,-0.125 -2.241,0 -4.105,0.056 -4.144,0.125 m 13.259,-0.015 c -0.115,0.046 -0.208,0.163 -0.208,0.259 0,0.096 -0.268,0.547 -0.596,1.004 -0.328,0.456 -0.759,1.102 -0.959,1.436 -0.35,0.587 -1.267,2.012 -3.987,6.198 -1.631,2.51 -1.631,2.493 -0.034,2.493 1.339,0 1.559,-0.112 2.292,-1.167 0.271,-0.39 0.398,-0.42 1.959,-0.474 1.886,-0.065 2.158,0.047 2.158,0.893 0,0.344 0.098,0.583 0.264,0.647 0.378,0.145 2.868,0.125 2.96,-0.024 0.098,-0.159 -0.164,-8.357 -0.322,-10.084 l -0.118,-1.291 -1.6,0.013 c -0.88,0.007 -1.694,0.051 -1.809,0.097 m 10.074,0.015 c -0.06,0.106 -1.252,3.849 -1.818,5.708 -0.097,0.321 -0.234,0.733 -0.303,0.917 -0.069,0.183 -0.329,1.008 -0.578,1.833 -0.249,0.825 -0.519,1.63 -0.601,1.789 -0.082,0.16 -0.149,0.481 -0.149,0.715 v 0.425 l 1.542,-0.048 1.541,-0.048 0.694,-2.081 c 0.956,-2.873 0.747,-2.669 2.73,-2.669 2.193,0 2.136,-0.167 1.054,3.112 -0.591,1.792 -0.635,1.722 1.085,1.722 1.646,0 1.677,-0.018 2.014,-1.167 0.503,-1.71 1.386,-4.437 1.525,-4.706 0.081,-0.159 0.148,-0.442 0.148,-0.627 0,-0.186 0.069,-0.468 0.152,-0.628 0.084,-0.159 0.35,-0.964 0.592,-1.789 0.242,-0.825 0.511,-1.672 0.598,-1.883 0.283,-0.685 0.219,-0.714 -1.457,-0.665 l -1.615,0.048 -0.402,1.417 c -0.221,0.779 -0.528,1.679 -0.684,2 l -0.282,0.583 -1.704,0.048 c -2.005,0.055 -2.054,0.013 -1.622,-1.431 0.156,-0.523 0.348,-1.175 0.426,-1.45 0.079,-0.275 0.194,-0.669 0.257,-0.875 0.115,-0.38 -2.933,-0.623 -3.143,-0.25 m 14.251,0.075 c -0.11,0.11 -0.2,0.331 -0.2,0.492 0,0.161 -0.071,0.464 -0.157,0.675 -0.087,0.21 -0.616,1.808 -1.175,3.549 -0.56,1.742 -1.079,3.317 -1.153,3.5 -0.292,0.718 -0.884,2.514 -0.907,2.75 -0.02,0.206 0.249,0.25 1.536,0.25 h 1.56 L 283.411,72 c 0.224,-0.628 0.424,-1.285 0.779,-2.558 0.273,-0.976 0.584,-1.169 1.735,-1.073 1.651,0.137 2.111,0.874 1.483,2.377 -0.143,0.341 -0.237,0.894 -0.209,1.229 l 0.051,0.608 1.458,0.048 c 1.097,0.037 1.463,-0.005 1.478,-0.166 0.04,-0.445 0.221,-1.148 0.582,-2.262 0.378,-1.166 0.305,-1.954 -0.226,-2.45 l -0.459,-0.428 0.984,-0.865 c 2.229,-1.961 2.383,-4.185 0.342,-4.949 -1.103,-0.412 -7.324,-0.529 -7.709,-0.144 m 39.3,0.266 c 0,0.257 -0.062,0.538 -0.138,0.625 -0.077,0.087 -0.277,0.646 -0.445,1.242 -0.169,0.596 -0.369,1.155 -0.445,1.242 -0.076,0.087 -0.139,0.332 -0.139,0.544 0,0.212 -0.068,0.515 -0.151,0.675 -0.084,0.159 -0.353,0.964 -0.598,1.789 -0.505,1.703 -0.618,2.074 -1.085,3.573 -0.407,1.306 -0.376,1.338 1.356,1.341 1.564,0.003 1.513,0.061 2.135,-2.402 0.272,-1.078 0.583,-2.065 0.69,-2.194 0.297,-0.359 3.459,-0.335 3.598,0.028 0.103,0.268 -0.226,1.528 -0.474,1.812 -0.075,0.087 -0.137,0.354 -0.137,0.592 0,0.238 -0.07,0.505 -0.156,0.592 -0.086,0.087 -0.179,0.458 -0.208,0.825 l -0.053,0.666 1.294,0.049 c 1.691,0.064 1.749,0.019 2.37,-1.861 0.291,-0.882 0.58,-1.654 0.641,-1.715 0.062,-0.061 0.112,-0.25 0.112,-0.419 0,-0.17 0.069,-0.438 0.154,-0.598 0.188,-0.354 2.179,-6.485 2.179,-6.711 0,-0.093 -0.672,-0.161 -1.58,-0.161 h -1.58 l -0.107,0.458 c -0.178,0.768 -0.907,3.109 -1.051,3.375 -0.107,0.198 -0.499,0.25 -1.867,0.25 h -1.732 l -0.053,-0.563 c -0.03,-0.309 0.026,-0.643 0.125,-0.742 0.098,-0.098 0.178,-0.376 0.178,-0.617 0,-0.242 0.054,-0.493 0.12,-0.558 0.065,-0.066 0.203,-0.453 0.307,-0.861 l 0.188,-0.742 H 324.724 323 v 0.466 m 14.202,-0.175 c -0.079,0.161 -0.243,0.629 -0.364,1.042 -0.121,0.413 -0.627,1.987 -1.125,3.5 -1.815,5.514 -1.254,6.833 2.905,6.833 3.084,0 5.433,-1.238 6.326,-3.333 0.098,-0.229 0.257,-0.604 0.354,-0.833 0.097,-0.229 0.565,-1.655 1.041,-3.167 0.475,-1.513 0.969,-3.071 1.096,-3.464 0.127,-0.393 0.232,-0.749 0.232,-0.792 0,-0.196 -3.18,-0.068 -3.245,0.131 -0.097,0.303 -0.896,2.981 -1.379,4.625 -0.994,3.38 -1.717,4.333 -3.286,4.333 -0.964,0 -1.757,-0.545 -1.757,-1.208 0,-0.283 1.282,-4.396 1.676,-5.375 0.073,-0.183 0.262,-0.746 0.42,-1.25 0.157,-0.504 0.32,-1.01 0.363,-1.125 0.136,-0.369 -3.075,-0.287 -3.257,0.083 m 14.187,-0.083 c -0.084,0.115 -0.288,0.658 -0.454,1.208 -0.166,0.55 -0.369,1.131 -0.452,1.29 -0.082,0.159 -0.15,0.473 -0.15,0.698 0,0.225 -0.066,0.45 -0.147,0.5 -0.081,0.051 -0.185,0.299 -0.23,0.552 -0.046,0.253 -0.284,1.098 -0.531,1.877 -1.059,3.35 -1.437,4.729 -1.356,4.941 0.096,0.248 7.495,0.341 7.87,0.098 0.228,-0.147 0.915,-2.371 0.793,-2.567 -0.047,-0.076 -1.058,-0.139 -2.247,-0.139 -2.599,0 -2.715,-0.142 -1.83,-2.25 0.077,-0.183 0.232,-0.671 0.345,-1.083 0.113,-0.413 0.266,-0.9 0.34,-1.083 0.075,-0.184 0.258,-0.746 0.407,-1.25 0.149,-0.504 0.342,-1.047 0.429,-1.206 0.086,-0.16 0.157,-0.474 0.157,-0.699 0,-0.225 0.075,-0.455 0.167,-0.512 0.092,-0.057 0.167,-0.211 0.167,-0.343 0,-0.323 -3.045,-0.352 -3.278,-0.032 m 11.326,0.167 c -0.096,0.206 -0.379,1.05 -0.629,1.875 -0.25,0.825 -0.514,1.65 -0.585,1.833 -0.071,0.183 -0.223,0.671 -0.338,1.083 -0.115,0.413 -0.451,1.5 -0.747,2.417 -0.928,2.876 -1.113,3.566 -1.003,3.744 0.166,0.268 8.528,0.234 8.701,-0.036 0.186,-0.289 0.536,-1.629 0.545,-2.083 0.008,-0.373 -0.005,-0.375 -2.581,-0.375 -2.988,0 -3.064,-0.042 -2.388,-1.314 l 0.409,-0.769 2.18,-0.047 2.18,-0.046 0.354,-0.971 c 0.194,-0.534 0.354,-1.038 0.354,-1.12 0,-0.083 -0.873,-0.124 -1.966,-0.091 -2.376,0.07 -2.589,-0.046 -2.191,-1.197 l 0.24,-0.695 2.69,-0.046 2.69,-0.045 0.17,-0.455 c 0.094,-0.25 0.245,-0.679 0.335,-0.954 0.09,-0.275 0.217,-0.631 0.282,-0.792 0.212,-0.522 -8.459,-0.439 -8.702,0.084 m -73.52,2.4 c 0.332,0.301 0.404,0.81 0.138,0.975 -0.091,0.056 -0.166,0.24 -0.166,0.407 0,0.727 -2.958,1.413 -3.464,0.804 -0.21,-0.254 0.13,-1.748 0.513,-2.253 0.251,-0.331 2.598,-0.278 2.979,0.067 m -28.99,2.644 c -0.058,2.065 -0.238,2.479 -1.107,2.551 -1.669,0.136 -1.763,-0.198 -0.598,-2.137 0.458,-0.763 0.833,-1.425 0.833,-1.472 0,-0.047 0.126,-0.224 0.28,-0.394 0.515,-0.569 0.639,-0.263 0.592,1.452" stroke="none" fill="#fa8c04" fill-rule="evenodd"></path>
    <path id="SvgjsPath1045" d="m 44.57,7.125 c 0.28,1.64 0.29,2.876 0.031,4.013 -0.227,1.001 -5.187,16.306 -5.599,17.279 -0.077,0.183 -0.177,0.483 -0.221,0.666 -0.043,0.184 -0.379,1.196 -0.745,2.25 -0.366,1.054 -1.305,3.867 -2.088,6.25 -1.444,4.394 -2.058,6.231 -2.287,6.834 -0.069,0.183 -0.515,1.529 -0.99,2.991 -1.238,3.809 -2.196,5.722 -3.94,7.87 -0.31,0.382 -0.564,0.738 -0.564,0.792 0,0.053 4.583,0.097 10.184,0.097 8.788,0 10.172,-0.033 10.093,-0.24 -0.66,-1.718 -0.312,-4.454 1.09,-8.594 0.45,-1.329 0.935,-2.791 1.077,-3.25 0.142,-0.458 0.316,-0.983 0.387,-1.166 0.07,-0.184 0.331,-0.971 0.58,-1.75 0.249,-0.78 0.51,-1.567 0.581,-1.75 0.071,-0.184 0.263,-0.746 0.426,-1.25 0.453,-1.396 0.3,-1.334 3.272,-1.334 3.185,0 2.872,-0.358 3.126,3.584 0.236,3.651 0.986,13.547 1.122,14.791 l 0.105,0.959 h 9.812 c 5.396,0 9.811,-0.045 9.811,-0.1 0,-0.055 -0.106,-0.336 -0.236,-0.625 -0.333,-0.738 -0.78,-2.647 -0.944,-4.025 C 78.577,50.775 78.398,49.5 78.255,48.583 77.859,46.044 77.726,45.162 77.262,42 c -0.235,-1.604 -0.492,-3.311 -0.57,-3.793 -0.196,-1.204 -0.069,-1.315 1.641,-1.429 3.687,-0.246 5.547,-2.12 7.303,-7.361 0.369,-1.1 1.134,-3.313 1.701,-4.917 0.567,-1.604 1.069,-3.087 1.117,-3.294 0.047,-0.208 0.152,-0.418 0.233,-0.468 0.08,-0.05 0.146,-0.238 0.146,-0.417 0,-0.179 0.072,-0.456 0.159,-0.615 0.176,-0.321 1.131,-3.007 1.348,-3.789 0.076,-0.275 0.268,-0.95 0.427,-1.5 C 91.68,11.263 90.89,8.803 88.61,7.702 86.018,6.451 86.991,6.5 64.555,6.5 H 44.464 L 44.57,7.125 M 224.417,6.701 c -1.677,0.313 -3.15,0.742 -3.956,1.152 -0.16,0.081 -0.369,0.147 -0.467,0.147 -0.36,0 -2.108,1.229 -3.044,2.141 -2.111,2.057 -2.796,3.514 -5.462,11.624 -1.023,3.108 -2.669,8.089 -3.658,11.068 -2.867,8.631 -3.147,10.129 -2.227,11.926 0.331,0.646 1.767,1.786 2.48,1.97 0.184,0.047 0.821,0.212 1.417,0.367 0.926,0.241 2.411,0.297 10.25,0.387 9.398,0.108 9.524,0.117 9.886,0.696 0.228,0.365 0.217,0.415 -0.564,2.654 -0.208,0.596 -0.468,1.384 -0.579,1.75 -0.11,0.367 -0.266,0.797 -0.347,0.956 -0.08,0.16 -0.146,0.404 -0.146,0.544 0,0.14 -0.069,0.385 -0.154,0.544 -0.158,0.297 -1.126,3.195 -1.516,4.54 -0.385,1.324 -1.643,3.81 -2.034,4.02 -0.205,0.109 -0.636,0.279 -0.959,0.377 -0.414,0.126 -30.281,0.205 -101.238,0.266 l -100.652,0.087 -0.788,2.416 c -2.017,6.187 -2.451,7.592 -2.381,7.709 0.112,0.186 208.867,0.153 210.491,-0.033 1.327,-0.153 3.824,-0.702 4.481,-0.986 2.796,-1.209 3.945,-2.115 5.349,-4.218 0.81,-1.213 2.568,-4.649 2.568,-5.019 0,-0.127 0.039,-0.27 0.087,-0.317 0.073,-0.074 5.104,-14.895 7.259,-21.386 0.365,-1.1 0.731,-2.15 0.812,-2.333 0.081,-0.183 0.196,-0.521 0.256,-0.75 0.059,-0.229 0.252,-0.942 0.427,-1.583 0.743,-2.715 0.333,-4.949 -1.094,-5.954 -2.265,-1.597 -3.689,-1.794 -13.069,-1.809 -11.009,-0.018 -10.447,0.483 -7.85,-6.987 0.653,-1.88 1.413,-4.092 1.689,-4.917 1.442,-4.312 0.741,-4.083 12.523,-4.083 10.908,0 12.049,0.126 14.601,1.611 0.861,0.501 0.826,0.536 1.423,-1.361 0.953,-3.028 1.962,-4.914 3.34,-6.241 0.328,-0.316 0.596,-0.66 0.596,-0.765 0,-0.386 -35.74,-0.585 -37.75,-0.21 M 72.183,13.857 c 1.525,0.512 1.554,1.539 0.156,5.56 -0.287,0.825 -0.593,1.63 -0.68,1.789 -0.088,0.159 -0.159,0.393 -0.159,0.52 0,0.369 -2.347,6.144 -2.703,6.652 -0.798,1.137 -1.962,1.319 -8.047,1.256 l -5,-0.051 0.034,-0.734 c 0.019,-0.404 0.113,-0.812 0.208,-0.908 0.096,-0.096 0.175,-0.31 0.175,-0.477 0,-0.166 0.067,-0.432 0.15,-0.591 0.18,-0.349 4.025,-12.067 4.02,-12.254 -0.002,-0.072 0.117,-0.316 0.266,-0.542 l 0.269,-0.41 h 5.372 c 3.584,0 5.562,0.063 5.939,0.19 m 118.97,8.518 c -0.008,0.023 -0.04,0.636 -0.072,1.361 -0.053,1.219 -0.602,3.462 -0.939,3.839 -0.078,0.087 -0.142,0.299 -0.142,0.47 0,0.285 -0.948,3.408 -1.365,4.497 -0.16,0.417 -0.635,0.654 -0.635,0.317 0,-0.252 -0.57,-0.802 -1.167,-1.126 -0.894,-0.485 -13.429,-0.485 -14.833,0 -2.705,0.935 -4.977,3.322 -6.043,6.35 -6.374,18.112 -6.384,18.084 6.377,18.084 3.566,0 6.656,-0.067 6.866,-0.149 1.556,-0.603 1.945,-0.802 2.411,-1.234 0.667,-0.618 0.889,-0.478 0.889,0.559 v 0.824 h 5.651 5.651 l -0.091,-0.679 c -0.157,-1.169 0.368,-2.984 4.288,-14.821 0.896,-2.705 2.507,-7.617 3.581,-10.917 1.074,-3.3 2.054,-6.273 2.178,-6.608 0.214,-0.577 0.207,-0.612 -0.141,-0.706 -0.344,-0.092 -12.434,-0.151 -12.464,-0.061 m 76.597,3.479 c -2.2,0.074 -4.523,0.194 -5.162,0.266 l -1.162,0.13 -0.78,2.333 c -0.975,2.918 -0.804,2.75 -2.799,2.75 -1.818,0 -1.831,0.007 -2.264,1.167 -0.155,0.412 -0.345,0.9 -0.423,1.083 -0.218,0.509 -0.66,1.908 -0.66,2.089 0,0.093 0.694,0.162 1.625,0.164 2.411,0.004 2.419,-0.665 -0.091,6.942 -3.405,10.315 -3.453,11.079 -0.784,12.393 1.845,0.908 2.848,0.996 11.452,0.996 h 7.784 l 0.489,-1.042 c 0.269,-0.573 0.797,-1.696 1.173,-2.496 0.897,-1.905 0.889,-2.012 -0.12,-1.513 -1.918,0.949 -8.783,0.985 -9.777,0.052 -0.681,-0.64 -0.272,-2.46 2.246,-10.001 0.168,-0.505 0.587,-1.817 0.931,-2.917 0.344,-1.1 0.692,-2.075 0.773,-2.167 0.09,-0.1 2.173,-0.199 5.265,-0.25 l 5.116,-0.083 0.398,-1 c 0.565,-1.419 1.187,-3.143 1.187,-3.291 0,-0.069 -2.253,-0.126 -5.006,-0.126 -4.198,0 -5.02,-0.038 -5.097,-0.239 -0.084,-0.219 0.591,-2.671 1.207,-4.382 0.325,-0.902 0.217,-1.051 -0.739,-1.02 -0.43,0.015 -2.582,0.087 -4.782,0.162 M 98.583,31.445 c -2.745,0.283 -5.942,2.665 -7.392,5.507 -0.466,0.914 -3.642,10.514 -4.344,13.131 -0.8,2.984 0.169,4.885 2.905,5.697 1.454,0.431 22.875,0.55 24.527,0.136 3.289,-0.825 5.31,-2.982 6.637,-7.083 0.163,-0.504 0.354,-1.066 0.426,-1.25 0.291,-0.75 2.836,-8.74 3.079,-9.666 0.853,-3.25 -0.019,-5.22 -2.702,-6.105 -1.08,-0.357 -20.289,-0.662 -23.136,-0.367 m 33.961,0.02 C 132.385,31.569 130,36.524 130,36.75 c 0,0.027 0.544,-0.149 1.208,-0.391 l 1.209,-0.441 8.223,-10e-4 h 8.222 l 0.319,0.393 c 0.411,0.507 0.402,0.789 -0.056,1.693 -0.73,1.439 -0.493,1.4 -9.125,1.512 -8.197,0.107 -8.29,0.117 -10.263,1.082 -2.099,1.027 -3.247,2.596 -4.427,6.051 -0.364,1.064 -0.73,2.085 -0.813,2.269 -1.128,2.476 -0.845,5.359 0.623,6.348 1.223,0.825 13.706,1.415 15.813,0.749 0.266,-0.084 0.691,-0.199 0.945,-0.254 0.254,-0.056 0.843,-0.475 1.309,-0.931 1.083,-1.061 1.146,-1.047 1.146,0.254 v 1.084 h 5.925 5.924 l -0.107,-0.571 c -0.173,-0.922 0.36,-3.022 2.013,-7.929 0.479,-1.421 1.259,-3.746 1.734,-5.167 0.474,-1.421 0.934,-2.714 1.02,-2.873 0.087,-0.159 0.158,-0.425 0.158,-0.591 0,-0.167 0.085,-0.388 0.189,-0.492 0.291,-0.29 0.287,-4.021 -0.005,-4.544 -0.545,-0.978 -1.256,-1.677 -2.149,-2.116 l -0.952,-0.467 -12.666,-0.043 c -6.967,-0.024 -12.76,0.017 -12.873,0.091 m 155.152,0.083 c -0.142,0.171 -2.256,4.255 -2.664,5.147 -0.028,0.061 0.497,-0.086 1.167,-0.327 l 1.218,-0.438 8.182,-0.007 c 9.3,-0.007 9.068,-0.037 9.068,1.158 0,0.795 -0.806,1.902 -1.619,2.224 -0.306,0.121 -3,0.206 -7.881,0.247 -8.625,0.073 -8.758,0.093 -11.084,1.647 -1.633,1.091 -2.311,2.103 -3.393,5.062 -3.313,9.059 -2.581,9.906 8.566,9.906 7.543,0 8.015,-0.077 9.442,-1.532 0.874,-0.892 1.012,-0.833 0.943,0.407 l -0.058,1.041 h 5.909 5.91 l -0.038,-0.833 c -0.032,-0.718 0.158,-1.673 0.796,-4 0.075,-0.275 0.415,-1.363 0.754,-2.417 0.339,-1.054 0.79,-2.479 1.003,-3.166 0.563,-1.815 0.89,-2.838 1.626,-5.084 1.611,-4.912 1.555,-6.37 -0.312,-8.116 -1.173,-1.096 -0.499,-1.045 -14.579,-1.1 -10.705,-0.041 -12.796,-0.012 -12.956,0.181 m 36.195,0.536 c 0.096,0.704 -0.107,2.19 -0.376,2.749 -0.066,0.138 -0.405,1.15 -0.753,2.25 -0.347,1.1 -0.692,2.15 -0.765,2.334 -0.189,0.469 -3.455,10.577 -3.582,11.083 -0.058,0.229 -0.332,1.017 -0.61,1.75 -0.277,0.733 -0.587,1.553 -0.687,1.822 -0.101,0.268 -0.431,0.813 -0.734,1.209 -0.303,0.397 -0.551,0.759 -0.551,0.804 0,0.045 3.074,0.082 6.83,0.082 h 6.831 l -0.092,-0.709 c -0.121,-0.93 0.678,-3.961 2.513,-9.541 0.211,-0.642 0.658,-2.067 0.993,-3.167 1.505,-4.936 2.838,-5.917 8.045,-5.917 2.947,0 3.589,0.107 4.464,0.743 0.275,0.201 0.589,0.417 0.697,0.481 0.136,0.079 0.355,-0.372 0.696,-1.429 0.273,-0.849 0.767,-2.318 1.097,-3.264 0.757,-2.174 0.94,-2.033 -2.625,-2.019 -5.996,0.024 -7.091,0.298 -9.009,2.253 -1.649,1.682 -1.781,1.593 -1.017,-0.684 0.233,-0.693 0.378,-1.332 0.324,-1.42 -0.061,-0.098 -2.373,-0.161 -5.946,-0.161 h -5.846 l 0.103,0.751 m 34.776,-0.571 c -5.667,0.47 -8.29,2.371 -9.892,7.17 -1.886,5.652 -2.041,7.553 -0.728,8.95 0.991,1.055 2.15,1.2 9.567,1.2 7.316,0 7.673,0.104 6.558,1.908 -0.634,1.026 -0.482,1.009 -8.823,1.009 h -7.599 l -1.33,-0.539 c -1.045,-0.423 -1.371,-0.494 -1.521,-0.333 -0.181,0.196 -1.732,4.785 -1.732,5.126 0,0.298 23.678,0.212 25.134,-0.092 4.694,-0.979 6.426,-2.787 8.445,-8.812 1.54,-4.599 1.613,-5.966 0.393,-7.356 -1.082,-1.232 -1.568,-1.307 -8.972,-1.374 -7.414,-0.067 -7.395,-0.064 -7.301,-1.155 0.11,-1.294 0.094,-1.292 7.65,-1.349 7.666,-0.058 9.284,0.059 10.675,0.775 1.105,0.568 0.963,0.711 1.718,-1.724 0.256,-0.825 0.603,-1.906 0.772,-2.402 0.168,-0.496 0.267,-0.964 0.219,-1.041 -0.108,-0.176 -21.074,-0.14 -23.233,0.039 m -248.2,4.429 c 2.209,0.266 2.367,1.47 0.78,5.975 -0.516,1.466 -1.049,3.004 -1.184,3.416 -0.136,0.413 -0.315,0.9 -0.398,1.084 -0.084,0.183 -0.387,1.07 -0.674,1.97 -0.9,2.824 -1.554,3.275 -4.933,3.405 -6.132,0.235 -6.089,0.577 -1.574,-12.366 0.837,-2.4 1.644,-3.258 3.266,-3.476 0.854,-0.114 3.789,-0.119 4.717,-0.008 m 74.907,-0.002 c 1.597,0.264 1.759,1.059 0.811,3.979 -0.356,1.099 -1,3.123 -1.431,4.498 -2.232,7.121 -2.419,7.326 -6.671,7.33 -4.439,0.005 -4.638,-0.354 -2.941,-5.296 0.447,-1.302 1.245,-3.643 1.772,-5.201 1.307,-3.861 1.94,-4.904 3.131,-5.158 0.204,-0.043 0.522,-0.111 0.705,-0.15 0.536,-0.113 3.942,-0.115 4.624,-0.002 m -38.262,8.325 c 0.109,0.283 0.068,0.428 -0.843,2.985 -0.934,2.623 -1.396,3.409 -2.342,3.994 l -0.818,0.506 h -2.8 -2.801 l -0.463,-0.463 c -1.245,-1.249 0.279,-6.102 2.189,-6.969 0.96,-0.436 7.714,-0.482 7.878,-0.053 m 155.329,-0.012 c 0.379,0.988 -2.348,6.575 -3.524,7.219 -0.676,0.371 -5.625,0.406 -6.3,0.046 -1.718,-0.918 -0.285,-6.286 1.938,-7.26 0.812,-0.355 7.75,-0.36 7.886,-0.005" stroke="none" fill="#fbfbfb" fill-rule="evenodd"></path>
    <path id="SvgjsPath1044" d="m 300.25,60.6 c -2.642,0.653 -3.436,1.17 -4.567,2.974 -0.908,1.45 -0.599,3.461 0.608,3.953 0.253,0.103 0.721,0.301 1.042,0.442 0.321,0.14 0.901,0.314 1.289,0.387 0.815,0.153 1.545,0.582 1.545,0.907 0,0.982 -2.16,1.241 -2.668,0.32 -0.38,-0.69 -3.496,-0.878 -3.842,-0.231 -0.283,0.528 -0.105,1.852 0.331,2.464 1.669,2.344 7.92,1.48 9.489,-1.312 1.644,-2.924 0.993,-4.307 -2.513,-5.338 -1.565,-0.46 -1.999,-0.834 -1.547,-1.333 0.518,-0.572 1.837,-0.47 2.166,0.167 l 0.259,0.5 h 1.546 c 1.782,0 1.945,-0.095 1.945,-1.123 0,-2.058 -2.489,-3.418 -5.083,-2.777 m 12.667,0.121 c -5.646,1.438 -8.638,9.72 -4.334,11.998 0.811,0.429 3.776,0.508 4.755,0.127 2.211,-0.862 3.397,-1.838 4.231,-3.485 C 318.255,68.008 318.248,68 316.353,68 h -1.646 l -0.617,0.753 c -1.443,1.76 -3.59,1.64 -3.59,-0.201 0,-3.561 3.992,-6.685 4.753,-3.72 0.154,0.6 0.338,0.663 1.951,0.665 1.809,0.004 2.047,-0.222 1.93,-1.829 -0.173,-2.398 -3.039,-3.756 -6.217,-2.947 m -62.827,0.112 -4.161,0.084 -0.283,0.833 c -0.156,0.458 -0.558,1.733 -0.894,2.833 -0.336,1.1 -0.748,2.413 -0.915,2.917 -1.905,5.741 -1.923,5.5 0.407,5.5 1.629,0 1.591,0.036 2.327,-2.167 0.758,-2.267 0.63,-2.166 2.746,-2.166 2.073,0 1.986,0.053 2.533,-1.552 0.483,-1.417 0.453,-1.442 -1.725,-1.446 -1.469,-0.002 -1.625,-0.032 -1.625,-0.311 0,-0.577 0.365,-1.358 0.641,-1.372 0.152,-0.008 1.066,-0.003 2.033,0.012 2.586,0.038 2.56,0.051 3.087,-1.53 0.608,-1.827 0.843,-1.735 -4.171,-1.635 m 80.356,-0.031 c -0.28,0.056 -0.545,0.695 -1.152,2.781 l -0.389,1.334 -1.479,0.048 c -1.619,0.053 -1.857,-0.042 -1.616,-0.648 0.323,-0.812 0.857,-2.754 0.857,-3.119 0,-0.37 -0.028,-0.375 -1.849,-0.328 l -1.849,0.047 -0.383,1.166 c -0.211,0.642 -0.665,2.067 -1.009,3.167 -0.344,1.1 -0.867,2.75 -1.161,3.667 -1.429,4.447 -1.508,4.085 0.889,4.08 1.932,-0.003 1.795,0.123 2.362,-2.164 0.718,-2.898 0.536,-2.69 2.301,-2.631 l 1.449,0.048 -0.047,0.5 c -0.025,0.275 -0.11,0.65 -0.188,0.833 -0.372,0.871 -0.878,2.724 -0.823,3.012 0.078,0.407 3.015,0.576 3.515,0.202 0.288,-0.215 3.959,-10.993 3.959,-11.623 0,-0.304 -2.408,-0.568 -3.387,-0.372 m -71.412,0.49 c -0.177,0.252 -1.257,1.92 -2.4,3.708 -2.742,4.291 -3.918,6.117 -4.423,6.871 -0.658,0.979 -0.48,1.129 1.339,1.129 h 1.56 l 0.539,-0.75 0.538,-0.75 h 1.814 1.813 l 0.051,0.708 0.052,0.709 h 1.778 c 0.978,0 1.83,-0.052 1.893,-0.115 0.15,-0.151 -0.312,-11.49 -0.479,-11.761 -0.297,-0.479 -3.709,-0.27 -4.075,0.251 m 10.176,-0.25 c -0.091,0.114 -0.367,0.883 -0.615,1.708 -0.247,0.825 -0.515,1.688 -0.596,1.917 -0.081,0.229 -0.534,1.691 -1.006,3.25 -0.473,1.558 -0.965,3.154 -1.093,3.547 -0.477,1.459 -0.387,1.536 1.776,1.536 1.711,0 1.739,-0.022 2.243,-1.75 0.952,-3.266 0.804,-3.083 2.494,-3.083 1.677,0 1.666,-0.013 1.234,1.434 -1.082,3.625 -1.149,3.393 0.989,3.396 1.895,0.004 1.896,0.003 2.607,-2.286 0.823,-2.654 1.822,-5.845 2.334,-7.458 0.232,-0.732 0.468,-1.576 0.525,-1.875 l 0.102,-0.545 h -1.846 c -2.149,0 -1.947,-0.167 -2.615,2.173 -0.59,2.068 -0.505,1.994 -2.283,1.994 -1.732,0 -1.63,0.25 -0.896,-2.211 0.628,-2.103 0.732,-1.956 -1.377,-1.956 -1.251,0 -1.864,0.065 -1.977,0.209 m 14.344,0 c -0.137,0.215 -1.617,4.6 -3.075,9.11 -0.968,2.997 -1.03,2.842 1.134,2.845 1.627,0.003 1.931,-0.121 2.132,-0.873 0.055,-0.206 0.18,-0.674 0.278,-1.041 0.098,-0.366 0.246,-0.839 0.328,-1.049 0.082,-0.211 0.149,-0.527 0.149,-0.703 0,-0.75 1.827,-0.94 2.605,-0.271 l 0.457,0.393 -0.347,0.982 c -0.848,2.404 -0.764,2.566 1.34,2.563 1.972,-0.004 2.067,-0.047 2.155,-0.972 0.041,-0.427 0.198,-1.211 0.349,-1.742 0.363,-1.278 0.346,-1.981 -0.059,-2.496 -0.448,-0.569 -0.43,-0.631 0.342,-1.177 2.288,-1.619 2.295,-4.584 0.013,-5.451 -1.06,-0.403 -7.557,-0.501 -7.801,-0.118 m 19.941,0.095 c 1.011,0.387 1.538,1.172 1.471,2.191 l -0.049,0.755 -1.405,0.049 c -1.364,0.048 -1.415,0.036 -1.776,-0.416 -0.691,-0.866 -2.903,-0.512 -2.903,0.464 0,0.357 0.724,0.956 1.319,1.093 3.7,0.852 4.494,2 3.236,4.681 -1.764,3.763 -9.555,4.018 -9.555,0.313 0,-1.074 0.044,-1.1 1.807,-1.1 1.263,0 1.281,0.006 1.502,0.504 0.488,1.103 2.291,1.179 3.074,0.13 0.54,-0.724 -0.179,-1.634 -1.291,-1.634 -0.243,0 -0.752,-0.15 -1.131,-0.334 -0.379,-0.183 -0.807,-0.335 -0.95,-0.338 -1.089,-0.022 -1.749,-2.175 -1.092,-3.56 0.471,-0.991 1.777,-2.16 2.761,-2.469 0.497,-0.156 1.129,-0.357 1.404,-0.445 0.815,-0.263 2.754,-0.2 3.578,0.116 m 13.063,-0.048 c 1.746,0.519 2.623,2.015 2.17,3.703 -0.173,0.645 -3.008,0.571 -3.164,-0.084 -0.531,-2.237 -3.424,-1.501 -4.706,1.199 -0.527,1.107 -0.806,3.067 -0.515,3.611 0.701,1.309 3.299,0.835 4.151,-0.757 0.217,-0.406 0.298,-0.428 1.608,-0.428 1.614,0 1.659,0.039 1.18,1.002 -2.248,4.511 -9.931,4.797 -10.384,0.387 -0.538,-5.229 4.866,-10.058 9.66,-8.633 m 20.497,-0.047 c -0.084,0.114 -0.237,0.47 -0.34,0.791 -2.771,8.594 -2.815,8.817 -1.979,9.913 1.519,1.992 6.331,1.89 8.866,-0.187 1.301,-1.066 1.672,-1.802 3.081,-6.11 1.676,-5.124 1.735,-4.637 -0.551,-4.579 l -1.869,0.047 -0.205,0.583 c -0.113,0.321 -0.396,1.221 -0.63,2 -1.543,5.135 -1.591,5.265 -2.177,5.832 -0.934,0.906 -2.609,0.875 -2.842,-0.052 -0.058,-0.234 0.382,-1.808 1.165,-4.163 0.693,-2.083 1.259,-3.899 1.259,-4.036 0,-0.331 -3.538,-0.368 -3.778,-0.039 m 14.152,0 c -0.092,0.114 -0.373,0.883 -0.625,1.708 -0.252,0.825 -0.591,1.912 -0.754,2.417 -0.164,0.504 -0.577,1.816 -0.92,2.916 -0.342,1.1 -0.799,2.563 -1.017,3.25 -0.548,1.734 -0.712,1.667 4.044,1.667 4.656,0 4.288,0.122 4.826,-1.604 0.609,-1.953 0.666,-1.896 -1.913,-1.896 -2.629,0 -2.522,0.162 -1.674,-2.541 0.381,-1.215 0.84,-2.697 1.02,-3.292 0.18,-0.596 0.398,-1.256 0.484,-1.467 0.085,-0.21 0.155,-0.604 0.155,-0.875 v -0.492 h -1.729 c -1.184,0 -1.783,0.066 -1.897,0.209 m 11.31,0.093 c -0.089,0.167 -0.399,1.085 -0.688,2.042 -1.045,3.461 -1.774,5.825 -2.205,7.156 -0.953,2.945 -1.363,2.667 3.922,2.667 5.1,0 4.836,0.083 5.29,-1.669 0.435,-1.678 0.457,-1.664 -2.701,-1.664 -2.703,0 -2.717,-0.007 -2.137,-0.959 l 0.33,-0.541 h 2.066 c 2.36,0 2.242,0.064 2.85,-1.551 0.531,-1.411 0.474,-1.449 -2.15,-1.449 -1.748,0 -1.927,-0.028 -1.927,-0.302 0,-0.828 0.283,-0.915 2.86,-0.88 2.121,0.03 2.453,-0.003 2.747,-0.267 0.371,-0.334 1.133,-2.464 0.974,-2.721 -0.21,-0.34 -9.046,-0.207 -9.231,0.138 m -108.186,0.157 c -0.004,0.215 -0.43,1.363 -0.55,1.483 -0.063,0.062 -0.114,0.289 -0.114,0.503 v 0.389 h -2.494 c -2.718,0 -2.84,0.044 -2.84,1.039 0,0.217 -0.088,0.482 -0.196,0.59 -0.522,0.523 0.331,0.891 1.986,0.857 1.851,-0.037 1.78,-0.085 1.414,0.942 -0.455,1.281 -0.378,1.238 -2.26,1.238 -1.711,0 -2.444,0.214 -2.444,0.715 0,0.209 -0.699,2.181 -1.091,3.077 l -0.237,0.542 h -1.326 c -1.782,0 -1.742,0.345 -0.426,-3.75 0.295,-0.917 0.705,-2.229 0.912,-2.917 0.207,-0.687 0.469,-1.55 0.584,-1.917 0.114,-0.366 0.34,-1.116 0.502,-1.666 0.162,-0.55 0.327,-1.057 0.365,-1.125 0.039,-0.069 1.903,-0.125 4.144,-0.125 2.24,0 4.072,0.056 4.071,0.125 m 8.571,1.166 c 0.158,1.727 0.42,9.925 0.322,10.084 -0.092,0.149 -2.582,0.169 -2.96,0.024 C 260.098,72.502 260,72.263 260,71.919 c 0,-0.846 -0.272,-0.958 -2.158,-0.893 -1.561,0.054 -1.688,0.084 -1.959,0.474 -0.733,1.055 -0.953,1.167 -2.292,1.167 -1.597,0 -1.597,0.017 0.034,-2.493 2.72,-4.186 3.637,-5.611 3.987,-6.198 0.2,-0.334 0.631,-0.98 0.959,-1.436 0.328,-0.457 0.596,-0.908 0.596,-1.004 0,-0.284 0.33,-0.342 2.017,-0.356 l 1.6,-0.013 0.118,1.291 m 9.69,-0.916 c -0.063,0.206 -0.178,0.6 -0.257,0.875 -0.078,0.275 -0.27,0.927 -0.426,1.45 -0.432,1.444 -0.383,1.486 1.622,1.431 l 1.704,-0.048 0.282,-0.583 c 0.156,-0.321 0.463,-1.221 0.684,-2 l 0.402,-1.417 1.615,-0.048 c 1.676,-0.049 1.74,-0.02 1.457,0.665 -0.087,0.211 -0.356,1.058 -0.598,1.883 -0.242,0.825 -0.508,1.63 -0.592,1.789 -0.083,0.16 -0.152,0.442 -0.152,0.628 0,0.185 -0.067,0.468 -0.148,0.627 -0.139,0.269 -1.022,2.996 -1.525,4.706 -0.337,1.149 -0.368,1.167 -2.014,1.167 -1.72,0 -1.676,0.07 -1.085,-1.722 1.082,-3.279 1.139,-3.112 -1.054,-3.112 -1.983,0 -1.774,-0.204 -2.73,2.669 l -0.694,2.081 -1.541,0.048 -1.542,0.048 v -0.425 c 0,-0.234 0.067,-0.555 0.149,-0.715 0.082,-0.159 0.352,-0.964 0.601,-1.789 0.249,-0.825 0.509,-1.65 0.578,-1.833 0.069,-0.184 0.206,-0.596 0.303,-0.917 0.566,-1.859 1.758,-5.602 1.818,-5.708 0.21,-0.373 3.258,-0.13 3.143,0.25 m 18.817,-0.031 c 2.041,0.764 1.887,2.988 -0.342,4.949 l -0.984,0.865 0.459,0.428 c 0.531,0.496 0.604,1.284 0.226,2.45 -0.361,1.114 -0.542,1.817 -0.582,2.262 -0.015,0.161 -0.381,0.203 -1.478,0.166 l -1.458,-0.048 -0.051,-0.608 c -0.028,-0.335 0.066,-0.888 0.209,-1.229 0.628,-1.503 0.168,-2.24 -1.483,-2.377 -1.151,-0.096 -1.462,0.097 -1.735,1.073 -0.355,1.273 -0.555,1.93 -0.779,2.558 l -0.207,0.583 h -1.56 c -1.287,0 -1.556,-0.044 -1.536,-0.25 0.023,-0.236 0.615,-2.032 0.907,-2.75 0.074,-0.183 0.593,-1.758 1.153,-3.5 0.559,-1.741 1.088,-3.339 1.175,-3.549 0.086,-0.211 0.157,-0.514 0.157,-0.675 0,-0.637 0.293,-0.692 3.694,-0.692 2.922,0 3.397,0.039 4.215,0.344 m 34.851,0.398 c -0.104,0.408 -0.242,0.795 -0.307,0.861 -0.066,0.065 -0.12,0.316 -0.12,0.558 0,0.241 -0.08,0.519 -0.178,0.617 -0.099,0.099 -0.155,0.433 -0.125,0.742 l 0.053,0.563 h 1.732 c 1.368,0 1.76,-0.052 1.867,-0.25 0.144,-0.266 0.873,-2.607 1.051,-3.375 l 0.107,-0.458 h 1.58 c 0.908,0 1.58,0.068 1.58,0.161 0,0.226 -1.991,6.357 -2.179,6.711 -0.085,0.16 -0.154,0.428 -0.154,0.598 0,0.169 -0.05,0.358 -0.112,0.419 -0.061,0.061 -0.35,0.833 -0.641,1.715 -0.621,1.88 -0.679,1.925 -2.37,1.861 l -1.294,-0.049 0.053,-0.666 c 0.029,-0.367 0.122,-0.738 0.208,-0.825 0.086,-0.087 0.156,-0.354 0.156,-0.592 0,-0.238 0.062,-0.505 0.137,-0.592 0.248,-0.284 0.577,-1.544 0.474,-1.812 -0.139,-0.363 -3.301,-0.387 -3.598,-0.028 -0.107,0.129 -0.418,1.116 -0.69,2.194 -0.622,2.463 -0.571,2.405 -2.135,2.402 -1.732,-0.003 -1.763,-0.035 -1.356,-1.341 0.467,-1.499 0.58,-1.87 1.085,-3.573 0.245,-0.825 0.514,-1.63 0.598,-1.789 0.083,-0.16 0.151,-0.463 0.151,-0.675 0,-0.212 0.063,-0.457 0.139,-0.544 0.076,-0.087 0.276,-0.646 0.445,-1.242 0.168,-0.596 0.368,-1.155 0.445,-1.242 C 322.938,62.171 323,61.89 323,61.633 v -0.466 h 1.724 1.724 l -0.188,0.742 m 14.199,-0.534 c -0.043,0.115 -0.206,0.621 -0.363,1.125 -0.158,0.504 -0.347,1.067 -0.42,1.25 -0.394,0.979 -1.676,5.092 -1.676,5.375 0,0.663 0.793,1.208 1.757,1.208 1.569,0 2.292,-0.953 3.286,-4.333 0.483,-1.644 1.282,-4.322 1.379,-4.625 0.065,-0.199 3.245,-0.327 3.245,-0.131 0,0.043 -0.105,0.399 -0.232,0.792 -0.127,0.393 -0.621,1.951 -1.096,3.464 -0.476,1.512 -0.944,2.938 -1.041,3.167 -0.097,0.229 -0.256,0.604 -0.354,0.833 -0.893,2.095 -3.242,3.333 -6.326,3.333 -4.159,0 -4.72,-1.319 -2.905,-6.833 0.498,-1.513 1.004,-3.087 1.125,-3.5 0.407,-1.383 0.328,-1.333 2.102,-1.333 1.206,0 1.577,0.05 1.519,0.208 m 14.208,0.032 c 0,0.132 -0.075,0.286 -0.167,0.343 -0.092,0.057 -0.167,0.287 -0.167,0.512 0,0.225 -0.071,0.539 -0.157,0.699 -0.087,0.159 -0.28,0.702 -0.429,1.206 -0.149,0.504 -0.332,1.066 -0.407,1.25 -0.074,0.183 -0.227,0.67 -0.34,1.083 -0.113,0.412 -0.268,0.9 -0.345,1.083 -0.885,2.108 -0.769,2.25 1.83,2.25 1.189,0 2.2,0.063 2.247,0.139 0.122,0.196 -0.565,2.42 -0.793,2.567 -0.375,0.243 -7.774,0.15 -7.87,-0.098 -0.081,-0.212 0.297,-1.591 1.356,-4.941 0.247,-0.779 0.485,-1.624 0.531,-1.877 0.045,-0.253 0.149,-0.501 0.23,-0.552 0.081,-0.05 0.147,-0.275 0.147,-0.5 0,-0.225 0.068,-0.539 0.15,-0.698 0.083,-0.159 0.286,-0.74 0.452,-1.29 0.166,-0.55 0.37,-1.093 0.454,-1.208 0.233,-0.32 3.278,-0.291 3.278,0.032 m 16.75,0.051 c -0.065,0.161 -0.192,0.517 -0.282,0.792 -0.09,0.275 -0.241,0.704 -0.335,0.954 l -0.17,0.455 -2.69,0.045 -2.69,0.046 -0.24,0.695 c -0.398,1.151 -0.185,1.267 2.191,1.197 1.093,-0.033 1.966,0.008 1.966,0.091 0,0.082 -0.16,0.586 -0.354,1.12 l -0.354,0.971 -2.18,0.046 -2.18,0.047 -0.409,0.769 c -0.676,1.272 -0.6,1.314 2.388,1.314 2.576,0 2.589,0.002 2.581,0.375 -0.009,0.454 -0.359,1.794 -0.545,2.083 -0.173,0.27 -8.535,0.304 -8.701,0.036 -0.11,-0.178 0.075,-0.868 1.003,-3.744 0.296,-0.917 0.632,-2.004 0.747,-2.417 0.115,-0.412 0.267,-0.9 0.338,-1.083 0.071,-0.183 0.335,-1.008 0.585,-1.833 0.768,-2.533 0.124,-2.25 5.127,-2.25 4.051,0 4.315,0.018 4.204,0.291 m -85.201,2.417 c -0.383,0.505 -0.723,1.999 -0.513,2.253 0.506,0.609 3.464,-0.077 3.464,-0.804 0,-0.167 0.075,-0.351 0.166,-0.407 0.266,-0.165 0.194,-0.674 -0.138,-0.975 -0.381,-0.345 -2.728,-0.398 -2.979,-0.067 m 2.738,0.354 c 0.361,0.338 0.014,1.153 -0.629,1.479 -0.92,0.466 -2.325,0.403 -2.325,-0.104 0,-0.613 0.461,-1.571 0.789,-1.641 0.516,-0.109 1.954,0.067 2.165,0.266 m -29.341,0.905 c -0.154,0.17 -0.28,0.347 -0.28,0.394 0,0.047 -0.375,0.709 -0.833,1.472 -1.165,1.939 -1.071,2.273 0.598,2.137 0.869,-0.072 1.049,-0.486 1.107,-2.551 0.047,-1.715 -0.077,-2.021 -0.592,-1.452 m 0.325,0.908 c -0.055,0.206 -0.101,0.881 -0.102,1.5 l -0.003,1.125 h -0.916 c -1.105,0 -1.096,0.109 -0.125,-1.599 0.752,-1.322 1.375,-1.88 1.146,-1.026" stroke="none" fill="#ae6004" fill-rule="evenodd"></path>
    <path id="SvgjsPath1043" d="m 44.19,6.389 c -0.152,0.182 -0.152,0.347 0,0.716 0.108,0.263 0.202,1.228 0.207,2.145 0.012,1.898 0.148,1.395 -2.751,10.167 -1,3.025 -3.289,9.962 -5.086,15.416 -1.797,5.455 -3.327,10.067 -3.4,10.25 -0.073,0.184 -0.48,1.384 -0.906,2.667 -1.166,3.512 -3.308,7.464 -4.367,8.057 -0.163,0.091 -0.23,0.26 -0.168,0.422 0.137,0.357 20.869,0.423 20.988,0.067 0.037,-0.112 0.004,-0.506 -0.075,-0.875 -0.294,-1.382 -0.339,-2.128 -0.165,-2.724 0.099,-0.337 0.267,-1.101 0.373,-1.697 0.183,-1.022 3.978,-12.849 4.341,-13.526 0.156,-0.292 0.359,-0.312 2.702,-0.27 l 2.534,0.046 0.109,1.667 c 0.06,0.916 0.193,2.754 0.295,4.083 0.102,1.329 0.255,3.354 0.34,4.5 0.425,5.712 0.666,8.457 0.766,8.716 0.185,0.484 20.17,0.352 20.125,-0.133 -0.017,-0.183 -0.215,-0.933 -0.44,-1.666 -0.226,-0.734 -0.492,-1.971 -0.592,-2.75 -0.1,-0.78 -0.252,-1.867 -0.337,-2.417 -0.465,-2.993 -1.23,-8.074 -1.518,-10.083 -0.086,-0.596 -0.204,-1.29 -0.263,-1.542 -0.107,-0.458 -0.107,-0.458 0.82,-0.458 4.404,0 6.367,-2.088 8.778,-9.334 0.168,-0.504 0.769,-2.229 1.337,-3.833 0.567,-1.604 1.067,-3.067 1.111,-3.25 0.044,-0.183 0.144,-0.483 0.222,-0.667 0.292,-0.688 1.398,-3.936 1.815,-5.333 1.298,-4.345 0.074,-6.736 -4.117,-8.041 L 85.417,6.257 64.902,6.204 C 47.3,6.158 44.359,6.185 44.19,6.389 M 225.5,6.325 c -7.156,0.664 -10.457,3.616 -13.094,11.709 -0.517,1.585 -1.007,3.013 -1.089,3.172 -0.083,0.159 -0.15,0.376 -0.15,0.481 0,0.105 -0.255,0.912 -0.567,1.794 -5.637,15.955 -6.547,20.119 -4.816,22.035 1.858,2.056 3.446,2.311 14.433,2.314 8.366,0.003 9.283,0.065 9.283,0.62 0,0.133 -1.655,5.338 -1.845,5.8 -0.075,0.183 -0.6,1.721 -1.166,3.417 -1.234,3.691 -1.804,4.891 -2.536,5.338 -0.531,0.324 -1.474,0.327 -101.314,0.328 -55.428,0 -100.897,0.046 -101.043,0.102 -0.375,0.144 -1.438,3.098 -2.964,8.232 -0.095,0.32 -0.239,0.713 -0.319,0.872 -0.081,0.16 -0.146,0.404 -0.146,0.544 0,0.14 -0.087,0.394 -0.193,0.564 -0.106,0.17 -0.146,0.431 -0.089,0.581 0.122,0.318 209.449,0.431 211.061,0.114 0.442,-0.087 1.254,-0.246 1.804,-0.352 2.698,-0.523 5.361,-1.767 6.533,-3.051 2.636,-2.888 3.47,-4.726 7.125,-15.689 1.436,-4.308 2.679,-7.983 2.762,-8.167 0.461,-1.019 3.182,-9.575 3.325,-10.456 0.549,-3.383 -0.271,-5.198 -2.791,-6.183 -2.495,-0.974 -2.659,-0.99 -11.728,-1.096 -9.719,-0.113 -9.143,-0.012 -9.143,-1.605 0,-0.787 0.858,-3.742 1.341,-4.616 0.087,-0.159 0.159,-0.404 0.159,-0.544 0,-0.14 0.069,-0.384 0.152,-0.544 0.084,-0.159 0.277,-0.664 0.43,-1.122 0.153,-0.459 0.343,-0.984 0.422,-1.167 0.08,-0.183 0.425,-1.158 0.767,-2.167 1.312,-3.866 0.442,-3.629 12.979,-3.537 10.73,0.078 11.54,0.17 13.622,1.544 0.733,0.484 1.104,0.519 1.232,0.118 0.051,-0.16 0.156,-0.441 0.233,-0.625 0.076,-0.183 0.339,-0.971 0.582,-1.75 0.821,-2.621 1.52,-3.861 3.201,-5.676 0.746,-0.806 0.891,-1.048 0.702,-1.168 C 262.519,6.403 257.688,6.337 251.402,6.336 245.344,6.334 237.357,6.302 233.652,6.263 229.948,6.225 226.279,6.252 225.5,6.325 M 85.781,6.756 c 4.687,1.055 6.218,3.407 4.986,7.661 -0.159,0.55 -0.351,1.225 -0.427,1.5 -0.217,0.782 -1.172,3.468 -1.348,3.789 -0.087,0.159 -0.159,0.436 -0.159,0.615 0,0.179 -0.066,0.367 -0.146,0.417 -0.081,0.05 -0.186,0.26 -0.233,0.468 -0.048,0.207 -0.55,1.69 -1.117,3.294 -0.567,1.604 -1.332,3.817 -1.701,4.917 -1.756,5.241 -3.616,7.115 -7.303,7.361 -1.71,0.114 -1.837,0.225 -1.641,1.429 0.078,0.482 0.335,2.189 0.57,3.793 0.464,3.162 0.597,4.044 0.993,6.583 0.143,0.917 0.322,2.192 0.398,2.834 0.164,1.378 0.611,3.287 0.944,4.025 0.13,0.289 0.236,0.57 0.236,0.625 0,0.055 -4.415,0.1 -9.811,0.1 H 60.21 l -0.105,-0.959 c -0.136,-1.244 -0.886,-11.14 -1.122,-14.791 -0.254,-3.942 0.059,-3.584 -3.126,-3.584 -2.972,0 -2.819,-0.062 -3.272,1.334 -0.163,0.504 -0.355,1.066 -0.426,1.25 -0.071,0.183 -0.332,0.97 -0.581,1.75 -0.249,0.779 -0.51,1.566 -0.58,1.75 -0.071,0.183 -0.245,0.708 -0.387,1.166 -0.142,0.459 -0.627,1.921 -1.077,3.25 -1.402,4.14 -1.75,6.876 -1.09,8.594 0.079,0.207 -1.305,0.24 -10.093,0.24 -5.601,0 -10.184,-0.044 -10.184,-0.097 0,-0.054 0.254,-0.41 0.564,-0.792 1.744,-2.148 2.702,-4.061 3.94,-7.87 0.475,-1.462 0.921,-2.808 0.99,-2.991 0.229,-0.603 0.843,-2.44 2.287,-6.834 0.783,-2.383 1.722,-5.196 2.088,-6.25 0.366,-1.054 0.702,-2.066 0.745,-2.25 C 38.825,28.9 38.925,28.6 39.002,28.417 39.414,27.444 44.374,12.139 44.601,11.138 44.86,10.001 44.85,8.765 44.57,7.125 L 44.464,6.5 h 20.091 c 17.45,0 20.24,0.034 21.226,0.256 M 256.042,6.611 c 6.676,0.12 6.537,0.093 5.529,1.065 -0.691,0.665 -1.898,2.441 -2.316,3.407 -0.45,1.039 -0.521,1.235 -1.024,2.834 -0.597,1.897 -0.562,1.862 -1.423,1.361 -2.552,-1.485 -3.693,-1.611 -14.601,-1.611 -11.782,0 -11.081,-0.229 -12.523,4.083 -0.276,0.825 -1.036,3.037 -1.689,4.917 -1.678,4.827 -1.794,5.326 -1.393,6.012 0.551,0.944 0.714,0.961 9.243,0.975 9.38,0.015 10.804,0.212 13.069,1.809 1.427,1.005 1.837,3.239 1.094,5.954 -0.175,0.641 -0.368,1.354 -0.427,1.583 -0.06,0.229 -0.175,0.567 -0.256,0.75 -0.081,0.183 -0.447,1.233 -0.812,2.333 -2.155,6.491 -7.186,21.312 -7.259,21.386 -0.048,0.047 -0.087,0.19 -0.087,0.317 0,0.37 -1.758,3.806 -2.568,5.019 -1.404,2.103 -2.553,3.009 -5.349,4.218 -0.657,0.284 -3.154,0.833 -4.481,0.986 -1.624,0.186 -210.379,0.219 -210.491,0.033 -0.07,-0.117 0.364,-1.522 2.381,-7.709 l 0.788,-2.416 100.652,-0.087 c 70.957,-0.061 100.824,-0.14 101.238,-0.266 0.323,-0.098 0.754,-0.268 0.959,-0.377 0.391,-0.21 1.649,-2.696 2.034,-4.02 0.39,-1.345 1.358,-4.243 1.516,-4.54 0.085,-0.159 0.154,-0.404 0.154,-0.544 0,-0.14 0.066,-0.384 0.146,-0.544 0.081,-0.159 0.237,-0.589 0.347,-0.956 0.111,-0.366 0.371,-1.154 0.579,-1.75 0.781,-2.239 0.792,-2.289 0.564,-2.654 -0.362,-0.579 -0.488,-0.588 -9.886,-0.696 -7.839,-0.09 -9.324,-0.146 -10.25,-0.387 -0.596,-0.155 -1.233,-0.32 -1.417,-0.367 -0.713,-0.184 -2.149,-1.324 -2.48,-1.97 -0.92,-1.797 -0.64,-3.295 2.227,-11.926 0.989,-2.979 2.635,-7.96 3.658,-11.068 2.666,-8.11 3.351,-9.567 5.462,-11.624 C 217.886,9.229 219.634,8 219.994,8 c 0.098,0 0.307,-0.066 0.467,-0.147 0.806,-0.41 2.279,-0.839 3.956,-1.152 0.991,-0.184 22.899,-0.247 31.625,-0.09 M 60.603,14.077 c -0.149,0.226 -0.268,0.47 -0.266,0.542 0.005,0.187 -3.84,11.905 -4.02,12.254 -0.083,0.159 -0.15,0.425 -0.15,0.591 0,0.167 -0.079,0.381 -0.175,0.477 -0.095,0.096 -0.189,0.504 -0.208,0.908 l -0.034,0.734 5,0.051 c 6.085,0.063 7.249,-0.119 8.047,-1.256 0.356,-0.508 2.703,-6.283 2.703,-6.652 0,-0.127 0.071,-0.361 0.159,-0.52 0.629,-1.148 1.674,-4.802 1.674,-5.855 0,-1.587 -0.41,-1.684 -7.089,-1.684 h -5.372 l -0.269,0.41 m 11.931,0.238 c 0.911,0.468 0.26,3.49 -1.98,9.185 -0.235,0.596 -0.485,1.233 -0.556,1.417 -0.072,0.183 -0.243,0.595 -0.38,0.916 -0.138,0.321 -0.421,0.996 -0.629,1.5 -0.795,1.921 -0.593,1.867 -7.211,1.961 -6.382,0.092 -6.354,0.102 -5.262,-2 0.083,-0.159 0.151,-0.404 0.151,-0.544 0,-0.14 0.071,-0.385 0.159,-0.544 0.156,-0.283 1.795,-5.179 3.153,-9.42 0.375,-1.172 0.763,-2.282 0.862,-2.467 0.231,-0.432 10.854,-0.435 11.693,-0.004 m 118.353,7.893 c -0.073,0.115 -0.148,0.848 -0.166,1.629 -0.025,1.04 -0.148,1.737 -0.461,2.603 -0.235,0.651 -0.427,1.307 -0.427,1.457 0,0.151 -0.067,0.404 -0.149,0.564 -0.081,0.159 -0.354,0.964 -0.605,1.789 -0.251,0.825 -0.536,1.698 -0.634,1.94 l -0.176,0.439 -0.317,-0.402 c -0.886,-1.126 -1.013,-1.144 -8.369,-1.144 -8.364,0 -8.544,0.047 -11.507,2.993 -1.7,1.691 -2.063,2.55 -5.313,12.591 -1.853,5.722 -1.884,6.707 -0.263,8.338 1.356,1.364 1.555,1.395 9.329,1.458 7.527,0.061 8.194,-0.02 9.635,-1.169 l 0.619,-0.494 0.046,0.475 c 0.025,0.261 0.083,0.645 0.129,0.852 l 0.083,0.377 5.86,-0.044 5.86,-0.043 0.042,-1.626 c 0.04,-1.528 0.49,-3.412 1.074,-4.497 0.086,-0.159 0.156,-0.404 0.156,-0.544 0,-0.14 0.07,-0.385 0.155,-0.544 0.085,-0.159 0.957,-2.764 1.939,-5.789 1.974,-6.082 5.624,-17.188 6.395,-19.455 0.443,-1.302 0.468,-1.482 0.241,-1.708 -0.343,-0.344 -12.959,-0.387 -13.176,-0.046 m 12.73,0.228 c 0.348,0.094 0.355,0.129 0.141,0.706 -0.124,0.335 -1.104,3.308 -2.178,6.608 -1.074,3.3 -2.685,8.212 -3.581,10.917 -3.92,11.837 -4.445,13.652 -4.288,14.821 l 0.091,0.679 h -5.651 -5.651 v -0.824 c 0,-1.037 -0.222,-1.177 -0.889,-0.559 -0.466,0.432 -0.855,0.631 -2.411,1.234 -0.21,0.082 -3.3,0.149 -6.866,0.149 -12.761,0 -12.751,0.028 -6.377,-18.084 1.066,-3.028 3.338,-5.415 6.043,-6.35 1.404,-0.485 13.939,-0.485 14.833,0 0.597,0.324 1.167,0.874 1.167,1.126 0,0.337 0.475,0.1 0.635,-0.317 0.417,-1.089 1.365,-4.212 1.365,-4.497 0,-0.171 0.064,-0.383 0.142,-0.47 0.337,-0.377 0.886,-2.62 0.939,-3.839 0.032,-0.725 0.064,-1.338 0.072,-1.361 0.03,-0.09 12.12,-0.031 12.464,0.061 M 269,25.508 c -0.871,0.067 -2.558,0.13 -3.75,0.141 -2.833,0.027 -3.866,0.155 -4.013,0.498 -0.064,0.148 -0.467,1.282 -0.897,2.52 l -0.78,2.25 -1.729,0.048 c -1.959,0.054 -2.016,0.081 -2.406,1.162 -0.156,0.434 -0.349,0.94 -0.428,1.123 -1.185,2.75 -1.123,2.917 1.081,2.917 0.965,0 1.755,0.048 1.755,0.108 0,0.115 -1.111,3.576 -1.329,4.142 -0.071,0.183 -0.341,1.008 -0.601,1.833 -0.259,0.825 -0.531,1.571 -0.604,1.658 -0.073,0.087 -0.132,0.295 -0.132,0.461 0,0.166 -0.066,0.432 -0.146,0.592 -0.386,0.764 -1.451,4.141 -1.695,5.372 -0.488,2.464 -0.341,3.33 0.747,4.412 1.547,1.536 3.11,1.752 12.693,1.754 8.679,10e-4 7.874,0.134 8.572,-1.416 0.206,-0.458 0.739,-1.582 1.185,-2.496 1.165,-2.391 1.131,-2.677 -0.228,-1.951 -2.047,1.093 -9.415,1.219 -9.976,0.171 -0.252,-0.472 0.331,-3.315 1.004,-4.89 0.079,-0.184 0.42,-1.234 0.758,-2.334 0.339,-1.1 0.752,-2.412 0.919,-2.916 0.475,-1.438 1.116,-3.539 1.233,-4.042 l 0.107,-0.458 h 5.143 c 5.921,0 5.282,0.212 6.087,-2.022 0.31,-0.859 0.648,-1.778 0.751,-2.042 0.439,-1.126 0.542,-1.103 -4.999,-1.103 -2.744,0 -4.989,-0.058 -4.989,-0.13 0,-0.071 0.181,-0.69 0.402,-1.375 0.798,-2.473 1.12,-3.698 1.032,-3.927 -0.1,-0.26 -1.858,-0.282 -4.767,-0.06 m 4.419,0.329 c 0.058,0.094 -0.009,0.488 -0.148,0.875 -0.616,1.711 -1.291,4.163 -1.207,4.382 0.077,0.201 0.899,0.239 5.097,0.239 2.753,0 5.006,0.057 5.006,0.126 0,0.148 -0.622,1.872 -1.187,3.291 l -0.398,1 -5.116,0.083 c -3.092,0.051 -5.175,0.15 -5.265,0.25 -0.081,0.092 -0.429,1.067 -0.773,2.167 -0.344,1.1 -0.763,2.412 -0.931,2.917 -2.518,7.541 -2.927,9.361 -2.246,10.001 0.994,0.933 7.859,0.897 9.777,-0.052 1.009,-0.499 1.017,-0.392 0.12,1.513 -0.376,0.8 -0.904,1.923 -1.173,2.496 l -0.489,1.042 h -7.784 c -8.604,0 -9.607,-0.088 -11.452,-0.996 -2.669,-1.314 -2.621,-2.078 0.784,-12.393 2.51,-7.607 2.502,-6.938 0.091,-6.942 -0.931,-0.002 -1.625,-0.071 -1.625,-0.164 0,-0.181 0.442,-1.58 0.66,-2.089 0.078,-0.183 0.268,-0.671 0.423,-1.083 0.433,-1.16 0.446,-1.167 2.264,-1.167 1.995,0 1.824,0.168 2.799,-2.75 l 0.78,-2.333 1.162,-0.13 c 0.974,-0.11 3.154,-0.203 9.944,-0.428 0.43,-0.014 0.829,0.051 0.887,0.145 M 97.911,31.24 c -3.165,0.706 -7.578,4.825 -7.578,7.073 0,0.158 -0.059,0.358 -0.132,0.445 -0.073,0.087 -0.345,0.834 -0.604,1.659 -0.26,0.825 -0.53,1.65 -0.601,1.833 -0.242,0.626 -2.318,7.165 -2.513,7.917 -0.78,3.002 0.2,4.93 2.982,5.867 1.506,0.508 22.752,0.693 24.806,0.217 3.892,-0.902 5.583,-3.006 7.639,-9.501 0.522,-1.65 1.009,-3.15 1.082,-3.333 0.112,-0.28 1.316,-4.08 1.853,-5.845 0.904,-2.98 -0.451,-5.378 -3.512,-6.212 -1.306,-0.356 -21.891,-0.462 -23.422,-0.12 m 33.439,1.796 c -1.475,3.111 -1.683,3.59 -1.683,3.872 0,0.345 0.369,0.326 1.046,-0.054 0.912,-0.512 1.686,-0.562 9.87,-0.63 9.301,-0.078 9.276,-0.084 8.223,1.789 -0.698,1.241 -0.594,1.226 -9.306,1.322 -7.682,0.085 -7.759,0.089 -8.75,0.483 -3.303,1.315 -4.509,2.889 -6.267,8.182 -1.387,4.176 -1.27,6.324 0.404,7.432 1.454,0.962 1.497,0.968 8.53,1.032 7.896,0.073 8.506,-0.006 9.885,-1.285 0.707,-0.657 0.698,-0.661 0.698,0.318 0,1.08 -0.397,1.022 6.58,0.966 l 5.829,-0.046 0.018,-1.25 c 0.016,-1.105 0.344,-2.77 0.738,-3.75 0.074,-0.184 0.776,-2.284 1.559,-4.667 1.598,-4.857 2.424,-7.339 2.607,-7.833 0.989,-2.657 0.531,-5.15 -1.229,-6.699 -1.332,-1.173 -0.634,-1.117 -14.9,-1.176 l -12.882,-0.054 -0.97,2.048 m 156.124,-1.75 c -0.321,0.375 -2.807,5.403 -2.807,5.677 0,0.29 0.396,0.252 1.21,-0.115 1.19,-0.538 1.617,-0.565 9.991,-0.629 l 8.118,-0.061 0.253,0.385 c 0.326,0.498 0.065,1.438 -0.557,2.006 -0.801,0.733 -1.381,0.784 -8.791,0.784 -10.936,0 -12.45,0.784 -14.808,7.667 -0.33,0.962 -0.66,1.9 -0.735,2.083 -0.809,1.992 -0.76,4.735 0.103,5.76 1.222,1.453 2.431,1.657 9.799,1.657 7.255,0 8.289,-0.162 9.484,-1.483 0.467,-0.515 0.652,-0.434 0.527,0.231 -0.246,1.312 -0.506,1.262 6.288,1.212 l 6.034,-0.043 0.115,-1.417 c 0.063,-0.779 0.194,-1.698 0.292,-2.042 0.097,-0.343 0.244,-0.868 0.325,-1.166 0.144,-0.524 1.063,-3.427 1.571,-4.959 0.136,-0.412 0.634,-1.987 1.106,-3.5 0.473,-1.512 0.922,-2.937 1,-3.166 1.664,-4.937 1.122,-7.414 -1.922,-8.788 -1.02,-0.461 -26.206,-0.549 -26.596,-0.093 m 36.137,-0.175 c -0.061,0.061 -0.111,0.725 -0.111,1.475 0,1.243 -0.114,1.893 -0.497,2.831 -0.229,0.561 -0.464,1.287 -0.754,2.333 -0.152,0.55 -0.345,1.13 -0.43,1.289 -0.084,0.16 -0.152,0.404 -0.152,0.544 0,0.14 -0.065,0.385 -0.145,0.544 -0.079,0.159 -0.232,0.552 -0.339,0.873 -2.182,6.509 -3.016,9.083 -3.016,9.3 0,0.595 -1.551,4.179 -2.153,4.974 -0.976,1.29 -1.284,1.235 6.664,1.186 l 7.072,-0.043 0.022,-1.167 c 0.026,-1.397 0.503,-3.249 2.147,-8.333 0.296,-0.917 0.78,-2.455 1.074,-3.417 0.873,-2.858 1.031,-3.254 1.624,-4.071 1.388,-1.913 2.634,-2.317 6.893,-2.235 3.051,0.059 3.139,0.078 4.223,0.941 0.737,0.587 0.737,0.588 2.63,-5.086 0.752,-2.258 1.059,-2.104 -3.99,-2.003 -5.54,0.111 -6.491,0.382 -8.364,2.38 -0.889,0.948 -0.914,0.918 -0.422,-0.513 0.475,-1.384 0.499,-1.678 0.149,-1.812 -0.36,-0.138 -11.986,-0.129 -12.125,0.01 m 34.889,0.078 c -5.929,0.608 -8.596,2.724 -10.264,8.144 -0.24,0.779 -0.548,1.754 -0.686,2.167 -1.376,4.141 -0.812,6.267 1.95,7.341 0.448,0.174 2.171,0.241 7.414,0.288 4.441,0.04 6.904,0.123 7.042,0.237 0.58,0.482 0.022,1.566 -1.009,1.956 -1.179,0.447 -15.03,0.183 -16.197,-0.308 -1.439,-0.606 -1.745,-0.71 -1.92,-0.652 -0.256,0.086 -2.145,5.732 -1.997,5.97 0.212,0.344 25.036,0.139 26.25,-0.216 4.405,-1.287 6.056,-3.153 7.995,-9.039 1.784,-5.413 1.602,-7.163 -0.868,-8.335 -1.213,-0.575 -1.864,-0.633 -8.275,-0.729 -7.061,-0.105 -6.953,-0.088 -6.714,-1.042 0.195,-0.776 0.483,-0.804 8.201,-0.804 7.717,0 8.194,0.04 9.759,0.826 0.995,0.5 1.486,0.447 1.486,-0.16 0,-0.175 0.07,-0.49 0.156,-0.7 0.52,-1.275 1.496,-4.642 1.41,-4.866 -0.116,-0.302 -20.876,-0.37 -23.733,-0.078 m -236.781,0.623 c 2.683,0.885 3.555,2.855 2.702,6.105 -0.243,0.926 -2.788,8.916 -3.079,9.666 -0.072,0.184 -0.263,0.746 -0.426,1.25 -1.327,4.101 -3.348,6.258 -6.637,7.083 -1.652,0.414 -23.073,0.295 -24.527,-0.136 -2.736,-0.812 -3.705,-2.713 -2.905,-5.697 0.702,-2.617 3.878,-12.217 4.344,-13.131 1.45,-2.842 4.647,-5.224 7.392,-5.507 2.847,-0.295 22.056,0.01 23.136,0.367 m 37.316,0.072 c 0.893,0.439 1.604,1.138 2.149,2.116 0.292,0.523 0.296,4.254 0.005,4.544 -0.104,0.104 -0.189,0.325 -0.189,0.492 0,0.166 -0.071,0.432 -0.158,0.591 -0.086,0.159 -0.546,1.452 -1.02,2.873 -0.475,1.421 -1.255,3.746 -1.734,5.167 -1.653,4.907 -2.186,7.007 -2.013,7.929 l 0.107,0.571 h -5.924 -5.925 v -1.084 c 0,-1.301 -0.063,-1.315 -1.146,-0.254 -0.466,0.456 -1.055,0.875 -1.309,0.931 -0.254,0.055 -0.679,0.17 -0.945,0.254 -2.107,0.666 -14.59,0.076 -15.813,-0.749 -1.468,-0.989 -1.751,-3.872 -0.623,-6.348 0.083,-0.184 0.449,-1.205 0.813,-2.269 1.18,-3.455 2.328,-5.024 4.427,-6.051 1.973,-0.965 2.066,-0.975 10.263,-1.082 8.632,-0.112 8.395,-0.073 9.125,-1.512 0.458,-0.904 0.467,-1.186 0.056,-1.693 l -0.319,-0.393 h -8.222 l -8.223,10e-4 -1.209,0.441 C 130.544,36.601 130,36.777 130,36.75 c 0,-0.226 2.385,-5.181 2.544,-5.285 0.113,-0.074 5.906,-0.115 12.873,-0.091 l 12.666,0.043 0.952,0.467 m 155.048,-0.167 c 0.829,0.374 1.487,0.98 2.106,1.941 0.843,1.307 0.702,2.815 -0.646,6.925 -0.736,2.246 -1.063,3.269 -1.626,5.084 -0.213,0.687 -0.664,2.112 -1.003,3.166 -0.339,1.054 -0.679,2.142 -0.754,2.417 -0.638,2.327 -0.828,3.282 -0.796,4 l 0.038,0.833 h -5.91 -5.909 l 0.058,-1.041 c 0.069,-1.24 -0.069,-1.299 -0.943,-0.407 -1.427,1.455 -1.899,1.532 -9.442,1.532 -11.147,0 -11.879,-0.847 -8.566,-9.906 1.082,-2.959 1.76,-3.971 3.393,-5.062 2.326,-1.554 2.459,-1.574 11.084,-1.647 4.881,-0.041 7.575,-0.126 7.881,-0.247 0.813,-0.322 1.619,-1.429 1.619,-2.224 0,-1.195 0.232,-1.165 -9.068,-1.158 l -8.182,0.007 -1.218,0.438 c -0.67,0.241 -1.195,0.388 -1.167,0.327 0.408,-0.892 2.522,-4.976 2.664,-5.147 0.331,-0.399 25.483,-0.238 26.387,0.169 m 21.497,-0.223 c 0.054,0.088 -0.091,0.727 -0.324,1.42 -0.764,2.277 -0.632,2.366 1.017,0.684 1.918,-1.955 3.013,-2.229 9.009,-2.253 3.565,-0.014 3.382,-0.155 2.625,2.019 -0.33,0.946 -0.824,2.415 -1.097,3.264 -0.341,1.057 -0.56,1.508 -0.696,1.429 -0.108,-0.064 -0.422,-0.28 -0.697,-0.481 -0.875,-0.636 -1.517,-0.743 -4.464,-0.743 -5.207,0 -6.54,0.981 -8.045,5.917 -0.335,1.1 -0.782,2.525 -0.993,3.167 -1.835,5.58 -2.634,8.611 -2.513,9.541 l 0.092,0.709 h -6.831 c -3.756,0 -6.83,-0.037 -6.83,-0.082 0,-0.045 0.248,-0.407 0.551,-0.804 0.303,-0.396 0.633,-0.941 0.734,-1.209 0.1,-0.269 0.41,-1.089 0.687,-1.822 0.278,-0.733 0.552,-1.521 0.61,-1.75 0.127,-0.506 3.393,-10.614 3.582,-11.083 0.073,-0.184 0.418,-1.234 0.765,-2.334 0.348,-1.1 0.687,-2.112 0.753,-2.25 0.269,-0.559 0.472,-2.045 0.376,-2.749 l -0.103,-0.751 h 5.846 c 3.573,0 5.885,0.063 5.946,0.161 m 46.32,-0.02 c 0.048,0.077 -0.051,0.545 -0.219,1.041 -0.169,0.496 -0.516,1.577 -0.772,2.402 -0.755,2.435 -0.613,2.292 -1.718,1.724 -1.391,-0.716 -3.009,-0.833 -10.675,-0.775 -7.556,0.057 -7.54,0.055 -7.65,1.349 -0.094,1.091 -0.113,1.088 7.301,1.155 7.404,0.067 7.89,0.142 8.972,1.374 1.22,1.39 1.147,2.757 -0.393,7.356 -2.019,6.025 -3.751,7.833 -8.445,8.812 -1.456,0.304 -25.134,0.39 -25.134,0.092 0,-0.341 1.551,-4.93 1.732,-5.126 0.15,-0.161 0.476,-0.09 1.521,0.333 l 1.33,0.539 h 7.599 c 8.341,0 8.189,0.017 8.823,-1.009 1.115,-1.804 0.758,-1.908 -6.558,-1.908 -11.5,0 -12.025,-0.602 -8.839,-10.15 1.602,-4.799 4.225,-6.7 9.892,-7.17 2.159,-0.179 23.125,-0.215 23.233,-0.039 M 105.75,35.95 c -1.622,0.218 -2.429,1.076 -3.266,3.476 -4.515,12.943 -4.558,12.601 1.574,12.366 3.379,-0.13 4.033,-0.581 4.933,-3.405 0.287,-0.9 0.59,-1.787 0.674,-1.97 0.083,-0.184 0.262,-0.671 0.398,-1.084 0.135,-0.412 0.668,-1.95 1.184,-3.416 1.916,-5.442 1.54,-6.126 -3.33,-6.057 -0.917,0.013 -1.892,0.053 -2.167,0.09 m 75,-0.008 c -0.183,0.039 -0.501,0.107 -0.705,0.15 -1.191,0.254 -1.824,1.297 -3.131,5.158 -0.527,1.558 -1.325,3.899 -1.772,5.201 -1.697,4.942 -1.498,5.301 2.941,5.296 2.97,-0.003 3.384,-0.115 4.14,-1.122 0.877,-1.167 1.195,-1.947 2.531,-6.208 0.431,-1.375 1.075,-3.399 1.431,-4.498 1.194,-3.678 0.851,-4.104 -3.268,-4.064 -1.009,0.009 -1.984,0.049 -2.167,0.087 m -69.417,0.525 c 0.696,0.339 0.886,1.606 0.436,2.903 -0.136,0.393 -0.782,2.251 -1.436,4.13 -0.654,1.879 -1.418,4.092 -1.697,4.917 -0.914,2.702 -1.3,2.938 -4.971,3.046 -4.622,0.136 -5.138,-0.741 -3.168,-5.38 0.078,-0.183 0.275,-0.746 0.439,-1.25 0.164,-0.504 0.358,-0.988 0.431,-1.075 0.073,-0.087 0.133,-0.294 0.133,-0.46 0,-0.167 0.071,-0.433 0.159,-0.592 0.139,-0.254 0.597,-1.527 1.453,-4.039 0.357,-1.049 0.917,-1.73 1.754,-2.136 0.982,-0.476 5.53,-0.521 6.467,-0.064 m 74.683,0.044 c 0.519,0.37 0.645,1.086 0.325,1.856 -0.131,0.317 -0.816,2.504 -1.711,5.466 -0.097,0.321 -0.233,0.734 -0.302,0.917 -0.069,0.183 -0.33,1.008 -0.58,1.833 -1.321,4.367 -2.155,5.021 -6.231,4.887 -3.325,-0.109 -3.562,-0.519 -2.349,-4.059 0.376,-1.097 1.21,-3.566 1.855,-5.486 1.553,-4.631 1.561,-4.645 3.061,-5.54 0.642,-0.383 5.358,-0.283 5.932,0.126 m -46.782,7.807 c -0.897,0.407 -1.165,0.797 -2.24,3.266 -0.578,1.327 -0.553,3.096 0.051,3.703 l 0.463,0.463 h 2.801 2.8 l 0.818,-0.506 c 1.076,-0.665 1.657,-1.819 3.111,-6.188 0.352,-1.056 0.351,-1.056 -3.574,-1.052 -3.099,0.003 -3.634,0.043 -4.23,0.314 m 155.321,-0.06 c -2.223,0.974 -3.656,6.342 -1.938,7.26 0.675,0.36 5.624,0.325 6.3,-0.046 1.176,-0.644 3.903,-6.231 3.524,-7.219 -0.136,-0.355 -7.074,-0.35 -7.886,0.005 m -147.804,0.243 c 0.187,0.304 -1.629,5.19 -2.154,5.793 -1.16,1.334 -6.376,1.8 -7.434,0.664 -1.113,-1.195 0.903,-6.263 2.587,-6.503 1.091,-0.156 6.9,-0.117 7.001,0.046 m 155.294,-0.067 c 0.055,0.055 -0.224,1.011 -0.62,2.125 -1.662,4.675 -1.989,4.941 -6.058,4.941 -2.738,-10e-4 -3.098,-0.188 -3.167,-1.648 -0.111,-2.358 1.401,-5.174 2.898,-5.397 0.768,-0.114 6.835,-0.133 6.947,-0.021" stroke="none" fill="#747474" fill-rule="evenodd"></path>
  </g>
</svg><style>@media (prefers-color-scheme: light) { :root { filter: none; } }
@media (prefers-color-scheme: dark) { :root { filter: none; } }
</style></svg>